<svg width="49" height="49" viewBox="0 0 49 49" fill="none" xmlns="http://www.w3.org/2000/svg">
<g clip-path="url(#clip0_180124_140296)" filter="url(#filter0_d_180124_140296)">
<path d="M24.5 41C29.9369 41 35.1512 38.8402 38.9957 34.9957C42.8402 31.1512 45 25.9369 45 20.5C45 15.0631 42.8402 9.84881 38.9957 6.00431C35.1512 2.15982 29.9369 -6.58427e-07 24.5 -8.96083e-07C19.0631 -1.13374e-06 13.8488 2.15981 10.0043 6.00431C6.15981 9.84881 4 15.0631 4 20.5C4 25.9369 6.15981 31.1512 10.0043 34.9957C13.8488 38.8402 19.0631 41 24.5 41ZM15.5312 21.7812C15.1914 21.7812 14.8655 21.6463 14.6253 21.406C14.385 21.1657 14.25 20.8398 14.25 20.5C14.25 20.1602 14.385 19.8343 14.6253 19.594C14.8655 19.3537 15.1914 19.2187 15.5312 19.2187L30.3758 19.2187L24.8741 13.7196C24.6335 13.479 24.4984 13.1527 24.4984 12.8125C24.4984 12.4723 24.6335 12.146 24.8741 11.9054C25.1147 11.6648 25.441 11.5296 25.7812 11.5296C26.1215 11.5296 26.4478 11.6648 26.6884 11.9054L34.3759 19.5929C34.4952 19.7119 34.5899 19.8533 34.6545 20.0089C34.719 20.1646 34.7523 20.3315 34.7523 20.5C34.7523 20.6685 34.719 20.8354 34.6545 20.9911C34.5899 21.1467 34.4952 21.2881 34.3759 21.4071L26.6884 29.0946C26.4478 29.3352 26.1215 29.4704 25.7812 29.4704C25.441 29.4704 25.1147 29.3352 24.8741 29.0946C24.6335 28.854 24.4984 28.5277 24.4984 28.1875C24.4984 27.8473 24.6335 27.521 24.8741 27.2804L30.3758 21.7812L15.5312 21.7812Z" fill="#D97706"/>
</g>
<defs>
<filter id="filter0_d_180124_140296" x="0" y="0" width="49" height="49" filterUnits="userSpaceOnUse" color-interpolation-filters="sRGB">
<feFlood flood-opacity="0" result="BackgroundImageFix"/>
<feColorMatrix in="SourceAlpha" type="matrix" values="0 0 0 0 0 0 0 0 0 0 0 0 0 0 0 0 0 0 127 0" result="hardAlpha"/>
<feOffset dy="4"/>
<feGaussianBlur stdDeviation="2"/>
<feComposite in2="hardAlpha" operator="out"/>
<feColorMatrix type="matrix" values="0 0 0 0 0 0 0 0 0 0 0 0 0 0 0 0 0 0 0.25 0"/>
<feBlend mode="normal" in2="BackgroundImageFix" result="effect1_dropShadow_180124_140296"/>
<feBlend mode="normal" in="SourceGraphic" in2="effect1_dropShadow_180124_140296" result="shape"/>
</filter>
<clipPath id="clip0_180124_140296">
<rect width="41" height="41" fill="white" transform="translate(45) rotate(90)"/>
</clipPath>
</defs>
</svg>
