<svg width="40" height="41" viewBox="0 0 40 41" fill="none" xmlns="http://www.w3.org/2000/svg">
<g clip-path="url(#clip0_180124_140292)">
<path d="M20 2.38498e-07C14.6957 1.75244e-07 9.60859 2.15981 5.85786 6.00431C2.10714 9.84881 3.09295e-07 15.0631 2.4446e-07 20.5C1.79625e-07 25.9369 2.10714 31.1512 5.85786 34.9957C9.60859 38.8402 14.6957 41 20 41C25.3043 41 30.3914 38.8402 34.1421 34.9957C37.8929 31.1512 40 25.9369 40 20.5C40 15.0631 37.8929 9.84881 34.1421 6.00431C30.3914 2.15981 25.3043 3.01751e-07 20 2.38498e-07ZM28.75 19.2188C29.0815 19.2188 29.3995 19.3537 29.6339 19.594C29.8683 19.8343 30 20.1602 30 20.5C30 20.8398 29.8683 21.1657 29.6339 21.406C29.3995 21.6463 29.0815 21.7813 28.75 21.7813L14.2675 21.7813L19.635 27.2804C19.8697 27.521 20.0016 27.8473 20.0016 28.1875C20.0016 28.5277 19.8697 28.854 19.635 29.0946C19.4003 29.3352 19.0819 29.4704 18.75 29.4704C18.4181 29.4704 18.0997 29.3352 17.865 29.0946L10.365 21.4071C10.2486 21.2881 10.1562 21.1467 10.0932 20.9911C10.0302 20.8354 9.99777 20.6685 9.99777 20.5C9.99777 20.3315 10.0302 20.1646 10.0932 20.0089C10.1562 19.8533 10.2486 19.7119 10.365 19.5929L17.865 11.9054C18.0997 11.6648 18.4181 11.5296 18.75 11.5296C19.0819 11.5296 19.4003 11.6648 19.635 11.9054C19.8697 12.146 20.0016 12.4723 20.0016 12.8125C20.0016 13.1527 19.8697 13.479 19.635 13.7196L14.2675 19.2188L28.75 19.2188Z" fill="#D97706"/>
</g>
<defs>
<clipPath id="clip0_180124_140292">
<rect width="41" height="40" fill="white" transform="translate(0 41) rotate(-90)"/>
</clipPath>
</defs>
</svg>
