<svg width="124" height="123" viewBox="0 0 124 123" fill="none" xmlns="http://www.w3.org/2000/svg">
<path d="M115.579 107.469H113.291V81.5269C113.291 80.6415 112.573 79.9237 111.688 79.9237C110.802 79.9237 110.084 80.6415 110.084 81.5269V107.469H101.391V96.1664H105.672C106.557 96.1664 107.275 95.4486 107.275 94.5632C107.275 93.6778 106.557 92.9599 105.672 92.9599H101.391V84.9439H105.672C106.557 84.9439 107.275 84.2261 107.275 83.3407C107.275 82.4553 106.557 81.7375 105.672 81.7375H101.391V73.7214H105.672C106.557 73.7214 107.275 73.0036 107.275 72.1182C107.275 71.2328 106.557 70.515 105.672 70.515H101.391V60.2476C106.31 61.0197 110.084 65.2872 110.084 70.4199V73.1353C110.084 74.0207 110.802 74.7385 111.688 74.7385C112.573 74.7385 113.291 74.0207 113.291 73.1353V70.4199C113.291 62.9741 107.233 56.9165 99.7875 56.9165C98.9018 56.9165 98.1842 57.6343 98.1842 58.5197V107.469H95.7831V56.1662C95.7831 55.2808 95.0655 54.563 94.1798 54.563H91.1865V49.7534C91.1865 48.868 90.4689 48.1502 89.5833 48.1502C88.6977 48.1502 87.9801 48.868 87.9801 49.7534V54.563H84.9748V45.4781C84.9748 44.5927 84.2572 43.8749 83.3716 43.8749C82.486 43.8749 81.7684 44.5927 81.7684 45.4781V54.563H78.7751C77.8895 54.563 77.1719 55.2808 77.1719 56.1662V107.469H75.3026L70.5288 46.0012H71.6517C74.5527 46.0012 76.7209 43.5028 76.6999 40.6925C78.4478 40.3248 79.7644 38.7716 79.7644 36.9159V30.8468C79.7644 28.9911 78.4478 27.4379 76.6999 27.0703C76.7076 24.257 74.5852 21.7615 71.6517 21.7615H67.506V2.8327C67.506 1.9473 66.7884 1.22949 65.9028 1.22949C65.0172 1.22949 64.2996 1.9473 64.2996 2.8327V21.7617H60.1539C57.2532 21.7617 55.0848 24.2602 55.1057 27.0705C53.3578 27.4382 52.0412 28.9914 52.0412 30.847V36.9161C52.0412 38.7718 53.3578 40.325 55.1057 40.6927C55.098 43.506 57.2205 46.0014 60.1539 46.0014H61.2798L58.0781 87.3771C54.3195 83.812 49.5475 81.2479 44.5275 80.115C39.2525 78.9246 33.7148 79.6351 28.5123 82.1701C27.7164 82.5579 27.3855 83.5177 27.7733 84.3135C28.1613 85.1096 29.1209 85.4402 29.9169 85.0525C34.457 82.84 39.2647 82.2144 43.8217 83.2428C48.5913 84.3193 53.1111 86.8502 56.5482 90.3692C57.8275 91.6793 58.9139 93.0908 59.8038 94.5811C59.0879 94.539 58.1245 94.4313 57.4263 94.6645C53.2501 88.46 45.5548 84.8624 39.3966 84.8624C35.6023 84.8624 31.5101 86.2025 27.874 88.6355C25.3969 90.2931 23.2456 92.3963 21.5766 94.7521C21.036 94.4809 19.9714 94.5298 19.3889 94.5813C20.347 93.067 21.4445 91.6485 22.6751 90.3495C23.2841 89.7067 23.2565 88.692 22.6137 88.083C21.971 87.474 20.9562 87.5015 20.3472 88.1443C18.5183 90.075 16.9491 92.2385 15.6691 94.5815H13.2315C12.3461 94.5815 11.6283 95.2994 11.6283 96.1848V107.469H9.33978C8.45438 107.469 7.73657 108.187 7.73657 109.072C7.73657 109.958 8.45438 110.675 9.33978 110.675H115.579C116.465 110.675 117.183 109.958 117.183 109.072C117.183 108.187 116.465 107.469 115.579 107.469ZM55.9009 37.5692C55.5407 37.5692 55.2477 37.2761 55.2477 36.9159V30.8468C55.2477 30.1467 56.2175 30.0766 56.7089 30.1935H75.0967C75.5884 30.0766 76.558 30.1467 76.558 30.8468V36.9159C76.558 37.616 75.5884 37.6861 75.0967 37.5692H55.9009ZM58.3124 26.8099C58.3124 25.7943 59.1385 24.9681 60.1541 24.9681H71.6517C72.8125 24.9681 73.418 25.9978 73.4935 26.9871H58.3121L58.3124 26.8099ZM58.3124 40.953V40.7756H73.4937C73.4182 41.7651 72.8127 42.7946 71.6519 42.7946H60.1543C59.1385 42.7948 58.3124 41.9686 58.3124 40.953ZM61.0389 90.6778L64.4958 46.0012H67.3128L72.0865 107.469H67.1646V96.1843C67.1646 95.2989 66.4471 94.5811 65.5614 94.5811H63.4552C62.7827 93.2239 61.9773 91.9187 61.0389 90.6778ZM56.3304 101.185V107.469H52.0816V101.185H56.3304ZM39.3964 88.0687C45.02 88.0687 52.4681 91.8178 55.6651 97.9791H23.3003C26.6833 92.219 33.2796 88.0687 39.3964 88.0687ZM41.4868 101.185V107.469H37.3054V101.185H41.4868ZM14.8347 107.469V97.7875H19.2562V107.469H14.8347ZM22.4652 101.185H26.7105V107.469H22.4652V101.185ZM29.9169 107.469V101.185H34.0989V107.469H29.9169ZM44.6932 107.469V101.185H48.8752V107.469H44.6932ZM59.5381 107.469V99.5823C59.5381 99.5733 59.5368 99.5645 59.5368 99.5553V97.7873H63.9582V107.469H59.5381ZM80.3783 107.469V57.7694H92.5764V107.469H80.3783Z" fill="#6D28D9"/>
<path d="M88.7135 64.9037H84.2412C83.3556 64.9037 82.638 65.6215 82.638 66.5069C82.638 67.3923 83.3556 68.1102 84.2412 68.1102H88.7135C89.5991 68.1102 90.3167 67.3923 90.3167 66.5069C90.3167 65.6215 89.5991 64.9037 88.7135 64.9037Z" fill="#6D28D9"/>
<path d="M88.7135 76.1262H84.2412C83.3556 76.1262 82.638 76.844 82.638 77.7294C82.638 78.6148 83.3556 79.3326 84.2412 79.3326H88.7135C89.5991 79.3326 90.3167 78.6148 90.3167 77.7294C90.3167 76.844 89.5991 76.1262 88.7135 76.1262Z" fill="#6D28D9"/>
<path d="M88.7135 87.3487H84.2412C83.3556 87.3487 82.638 88.0665 82.638 88.9519C82.638 89.8373 83.3556 90.5551 84.2412 90.5551H88.7135C89.5991 90.5551 90.3167 89.8373 90.3167 88.9519C90.3167 88.0665 89.5991 87.3487 88.7135 87.3487Z" fill="#6D28D9"/>
<path d="M88.7135 98.5712H84.2412C83.3556 98.5712 82.638 99.289 82.638 100.174C82.638 101.06 83.3556 101.778 84.2412 101.778H88.7135C89.5991 101.778 90.3167 101.06 90.3167 100.174C90.3167 99.289 89.5991 98.5712 88.7135 98.5712Z" fill="#6D28D9"/>
<path d="M28.4293 61.7738C34.2637 61.7738 39.0105 57.027 39.0105 51.1926C39.0105 45.3582 34.2637 40.6114 28.4293 40.6114C22.5949 40.6114 17.8481 45.3582 17.8481 51.1926C17.8481 57.027 22.5949 61.7738 28.4293 61.7738ZM28.4293 43.8179C32.4957 43.8179 35.8041 47.1262 35.8041 51.1926C35.8041 55.259 32.4957 58.5674 28.4293 58.5674C24.363 58.5674 21.0546 55.259 21.0546 51.1926C21.0546 47.1262 24.363 43.8179 28.4293 43.8179Z" fill="#6D28D9"/>
</svg>
