<svg width="27" height="26" viewBox="0 0 27 26" fill="none" xmlns="http://www.w3.org/2000/svg">
<g clip-path="url(#clip0_179901_140035)">
<path d="M23.2043 0H3.70428C1.91425 0 0.454285 1.45996 0.454285 3.2043V17.7836C0.454285 19.5736 1.91425 20.9879 3.70428 20.9879H8.57928V25.2525C8.57928 25.752 9.13889 26.0421 9.55022 25.7451L15.8928 20.9879H23.2053C24.9953 20.9879 26.4553 19.5279 26.4553 17.7836V3.2043C26.4543 1.45996 25.0375 0 23.2043 0ZM24.875 17.875C24.875 18.7687 24.1437 19.5 23.25 19.5H15.9324C15.5806 19.5 15.2382 19.6142 14.9569 19.8253L10.25 23.3594V20.3125C10.25 19.8637 9.88619 19.5 9.43749 19.5H3.74999C2.85624 19.5 2.12499 18.7687 2.12499 17.875V3.25C2.12499 2.35625 2.85624 1.625 3.74999 1.625H23.25C24.1437 1.625 24.875 2.35625 24.875 3.25V17.875Z" fill="#6D28D9"/>
</g>
<defs>
<clipPath id="clip0_179901_140035">
<rect width="26" height="26" fill="white" transform="translate(0.5)"/>
</clipPath>
</defs>
</svg>
