<svg width="22" height="23" viewBox="0 0 22 23" fill="none" xmlns="http://www.w3.org/2000/svg">
<g clip-path="url(#clip0_179901_139983)">
<path d="M20.0449 4.09686L11.7949 0.659357C11.5854 0.572088 11.2295 0.500244 11.0026 0.500244C10.7743 0.500244 10.4204 0.572088 10.2094 0.659357L1.9598 4.09686C1.19023 4.4144 0.6875 5.16635 0.6875 5.96127C0.6875 17.0515 8.81719 22.4999 10.9957 22.4999C13.1957 22.4999 21.3125 16.9914 21.3125 5.96127C21.3125 5.16635 20.8098 4.4144 20.0449 4.09686ZM15.125 9.09369C15.125 9.33135 15.0433 9.57022 14.8766 9.76486L10.7516 14.5774C10.4629 14.916 10.0805 14.8988 9.96875 14.8988C9.69616 14.8988 9.43293 14.79 9.23957 14.5967L7.17707 12.5342C6.97383 12.3722 6.875 12.1058 6.875 11.805C6.875 11.2555 7.31758 10.7738 7.90625 10.7738C8.17012 10.7738 8.43391 10.8745 8.63543 11.0759L9.91117 12.3516L13.3113 8.38389C13.5158 8.14619 13.8046 8.02459 14.095 8.02459C14.8844 8.06244 15.125 8.77572 15.125 9.09369Z" fill="#0EA5E9"/>
</g>
<defs>
<clipPath id="clip0_179901_139983">
<rect width="22" height="22" fill="white" transform="translate(0 0.5)"/>
</clipPath>
</defs>
</svg>
