<svg width="15" height="14" viewBox="0 0 15 14" fill="none" xmlns="http://www.w3.org/2000/svg">
<g clip-path="url(#clip0_180124_143351)">
<path d="M8.1665 5.00452L11.8579 1.31312H10.6001C10.2364 1.31312 9.94385 1.02054 9.94385 0.656867C9.94385 0.293195 10.2364 0.00061654 10.6001 0.00061654H13.4438C13.8075 0.00061654 14.1001 0.293195 14.1001 0.656867V3.50062C14.1001 3.86429 13.8075 4.15687 13.4438 4.15687C13.0802 4.15687 12.7876 3.86429 12.7876 3.50062V2.24007L9.09619 5.93421C8.83916 6.19124 8.42354 6.19124 8.16924 5.93421C7.91494 5.67718 7.91221 5.26155 8.16924 5.00726L8.1665 5.00452ZM3.31299 0.0388978C3.84346 -0.106024 4.39853 0.164679 4.60908 0.673273L5.70283 3.29827C5.88877 3.74398 5.76025 4.26077 5.38564 4.56429L4.0376 5.66898C4.94814 7.59398 6.50674 9.15257 8.43174 10.0631L9.53369 8.71507C9.83994 8.34046 10.354 8.21194 10.7997 8.39788L13.4247 9.49163C13.9333 9.70218 14.204 10.2573 14.0591 10.7877L13.4028 13.194C13.2743 13.6698 12.8423 14.0006 12.3501 14.0006C5.58525 14.0006 0.100098 8.51546 0.100098 1.75062C0.100098 1.25843 0.430957 0.826398 0.906738 0.695148L3.31299 0.0388978Z" fill="#D4D4D8"/>
</g>
<defs>
<clipPath id="clip0_180124_143351">
<rect width="14" height="14" fill="white" transform="translate(0.100098)"/>
</clipPath>
</defs>
</svg>
