<svg width="100" height="22" viewBox="0 0 100 22" fill="none" xmlns="http://www.w3.org/2000/svg">
<g filter="url(#filter0_dd_179984_138880)">
<rect x="2.7879" y="1.94849" width="94.4207" height="16.1029" rx="8.05143" fill="#A855F7"/>
<rect x="2.7879" y="1.94849" width="94.4207" height="16.1029" rx="8.05143" fill="url(#paint0_linear_179984_138880)"/>
<path d="M22.0045 9.14122C22.0045 9.45682 21.93 9.75455 21.7812 10.0344C21.6323 10.3143 21.3941 10.5435 21.0666 10.7222C20.7391 10.8949 20.3193 10.9812 19.8072 10.9812H18.6818V13.5H17.6635V7.29231H19.8072C20.2836 7.29231 20.6855 7.37568 21.013 7.54241C21.3465 7.70318 21.5936 7.9235 21.7544 8.20337C21.9211 8.48324 22.0045 8.79585 22.0045 9.14122ZM19.8072 10.1505C20.1943 10.1505 20.4831 10.0642 20.6736 9.8915C20.8642 9.71286 20.9594 9.46277 20.9594 9.14122C20.9594 8.4624 20.5754 8.12298 19.8072 8.12298H18.6818V10.1505H19.8072ZM23.8599 9.29306C24.0087 9.04297 24.2052 8.84945 24.4494 8.71249C24.6995 8.56958 24.9942 8.49812 25.3336 8.49812V9.55209H25.0746C24.6756 9.55209 24.372 9.65332 24.1635 9.85578C23.9611 10.0582 23.8599 10.4096 23.8599 10.9097V13.5H22.8416V8.57851H23.8599V9.29306ZM30.6462 10.9187C30.6462 11.1033 30.6343 11.27 30.6105 11.4189H26.8502C26.8799 11.8119 27.0258 12.1275 27.2878 12.3656C27.5498 12.6038 27.8714 12.7229 28.2525 12.7229C28.8003 12.7229 29.1874 12.4937 29.4136 12.0352H30.5123C30.3634 12.4877 30.0925 12.8599 29.6995 13.1517C29.3124 13.4375 28.8301 13.5804 28.2525 13.5804C27.7821 13.5804 27.3593 13.4762 26.9841 13.2678C26.615 13.0534 26.3232 12.7557 26.1088 12.3746C25.9004 11.9875 25.7962 11.5409 25.7962 11.0348C25.7962 10.5286 25.8974 10.085 26.0999 9.70393C26.3083 9.31688 26.5971 9.01915 26.9663 8.81074C27.3414 8.60233 27.7702 8.49812 28.2525 8.49812C28.7169 8.49812 29.1308 8.59935 29.494 8.80181C29.8573 9.00427 30.1401 9.29009 30.3426 9.65927C30.545 10.0225 30.6462 10.4423 30.6462 10.9187ZM29.5833 10.5971C29.5774 10.222 29.4434 9.92128 29.1814 9.695C28.9194 9.46873 28.5949 9.35559 28.2078 9.35559C27.8565 9.35559 27.5558 9.46873 27.3057 9.695C27.0556 9.91532 26.9067 10.216 26.8591 10.5971H29.5833ZM37.4719 8.49812C37.8589 8.49812 38.2043 8.57851 38.508 8.73928C38.8176 8.90006 39.0588 9.13824 39.2315 9.45384C39.4101 9.76943 39.4994 10.1505 39.4994 10.5971V13.5H38.4901V10.749C38.4901 10.3083 38.38 9.97189 38.1597 9.73966C37.9393 9.50148 37.6386 9.38238 37.2575 9.38238C36.8764 9.38238 36.5728 9.50148 36.3465 9.73966C36.1262 9.97189 36.016 10.3083 36.016 10.749V13.5H35.0067V10.749C35.0067 10.3083 34.8965 9.97189 34.6762 9.73966C34.4559 9.50148 34.1552 9.38238 33.7741 9.38238C33.393 9.38238 33.0893 9.50148 32.863 9.73966C32.6427 9.97189 32.5325 10.3083 32.5325 10.749V13.5H31.5143V8.57851H32.5325V9.14122C32.6993 8.93876 32.9107 8.78097 33.1667 8.66783C33.4228 8.55469 33.6967 8.49812 33.9884 8.49812C34.3815 8.49812 34.7328 8.58149 35.0424 8.74822C35.3521 8.91495 35.5902 9.15611 35.757 9.4717C35.9058 9.17397 36.1381 8.93876 36.4537 8.76608C36.7693 8.58744 37.1087 8.49812 37.4719 8.49812ZM41.1792 7.92648C40.9946 7.92648 40.8398 7.86396 40.7147 7.73891C40.5897 7.61386 40.5272 7.45904 40.5272 7.27445C40.5272 7.08986 40.5897 6.93504 40.7147 6.80999C40.8398 6.68494 40.9946 6.62242 41.1792 6.62242C41.3578 6.62242 41.5097 6.68494 41.6347 6.80999C41.7598 6.93504 41.8223 7.08986 41.8223 7.27445C41.8223 7.45904 41.7598 7.61386 41.6347 7.73891C41.5097 7.86396 41.3578 7.92648 41.1792 7.92648ZM41.6794 8.57851V13.5H40.6612V8.57851H41.6794ZM47.3393 8.57851V13.5H46.3211V12.9194C46.1603 13.1219 45.9489 13.2827 45.6869 13.4017C45.4308 13.5149 45.1569 13.5715 44.8652 13.5715C44.4781 13.5715 44.1298 13.4911 43.8201 13.3303C43.5164 13.1695 43.2753 12.9313 43.0966 12.6157C42.924 12.3001 42.8376 11.919 42.8376 11.4725V8.57851H43.8469V11.3206C43.8469 11.7613 43.9571 12.1007 44.1774 12.3388C44.3977 12.5711 44.6984 12.6872 45.0795 12.6872C45.4606 12.6872 45.7613 12.5711 45.9817 12.3388C46.2079 12.1007 46.3211 11.7613 46.3211 11.3206V8.57851H47.3393ZM54.5064 8.49812C54.8935 8.49812 55.2388 8.57851 55.5425 8.73928C55.8521 8.90006 56.0933 9.13824 56.266 9.45384C56.4446 9.76943 56.5339 10.1505 56.5339 10.5971V13.5H55.5246V10.749C55.5246 10.3083 55.4145 9.97189 55.1942 9.73966C54.9738 9.50148 54.6731 9.38238 54.292 9.38238C53.9109 9.38238 53.6073 9.50148 53.381 9.73966C53.1607 9.97189 53.0505 10.3083 53.0505 10.749V13.5H52.0412V10.749C52.0412 10.3083 51.931 9.97189 51.7107 9.73966C51.4904 9.50148 51.1897 9.38238 50.8086 9.38238C50.4275 9.38238 50.1238 9.50148 49.8975 9.73966C49.6772 9.97189 49.567 10.3083 49.567 10.749V13.5H48.5488V8.57851H49.567V9.14122C49.7338 8.93876 49.9452 8.78097 50.2012 8.66783C50.4573 8.55469 50.7312 8.49812 51.023 8.49812C51.416 8.49812 51.7673 8.58149 52.0769 8.74822C52.3866 8.91495 52.6247 9.15611 52.7915 9.4717C52.9403 9.17397 53.1726 8.93876 53.4882 8.76608C53.8038 8.58744 54.1432 8.49812 54.5064 8.49812ZM60.9001 12.6783H62.9991V13.5H59.8819V7.29231H60.9001V12.6783ZM63.3773 11.0169C63.3773 10.5227 63.4785 10.085 63.681 9.70393C63.8894 9.32284 64.1692 9.02808 64.5206 8.81967C64.8778 8.60531 65.2708 8.49812 65.6996 8.49812C66.0866 8.49812 66.4231 8.57553 66.7089 8.73035C67.0007 8.87922 67.2329 9.06679 67.4056 9.29306V8.57851H68.4327V13.5H67.4056V12.7676C67.2329 12.9998 66.9977 13.1933 66.6999 13.3482C66.4022 13.503 66.0628 13.5804 65.6817 13.5804C65.2589 13.5804 64.8719 13.4732 64.5206 13.2588C64.1692 13.0385 63.8894 12.7348 63.681 12.3478C63.4785 11.9548 63.3773 11.5112 63.3773 11.0169ZM67.4056 11.0348C67.4056 10.6954 67.3341 10.4006 67.1912 10.1505C67.0542 9.90043 66.8726 9.70989 66.6464 9.57889C66.4201 9.44788 66.1759 9.38238 65.9139 9.38238C65.6519 9.38238 65.4078 9.44788 65.1815 9.57889C64.9552 9.70393 64.7706 9.8915 64.6277 10.1416C64.4908 10.3857 64.4223 10.6775 64.4223 11.0169C64.4223 11.3563 64.4908 11.6541 64.6277 11.9101C64.7706 12.1662 64.9552 12.3627 65.1815 12.4996C65.4137 12.6306 65.6579 12.6961 65.9139 12.6961C66.1759 12.6961 66.4201 12.6306 66.6464 12.4996C66.8726 12.3686 67.0542 12.1781 67.1912 11.928C67.3341 11.6719 67.4056 11.3742 67.4056 11.0348ZM76.2458 8.57851L74.7184 13.5H73.6466L72.6552 9.86471L71.6637 13.5H70.5919L69.0556 8.57851H70.0917L71.1189 12.5354L72.1639 8.57851H73.2268L74.2272 12.5175L75.2454 8.57851H76.2458ZM81.303 8.57851L78.284 15.8134H77.2301L78.2304 13.4196L76.2922 8.57851H77.4266L78.811 12.3299L80.249 8.57851H81.303ZM86.4481 10.9187C86.4481 11.1033 86.4362 11.27 86.4124 11.4189H82.652C82.6818 11.8119 82.8277 12.1275 83.0897 12.3656C83.3517 12.6038 83.6732 12.7229 84.0543 12.7229C84.6021 12.7229 84.9892 12.4937 85.2155 12.0352H86.3141C86.1652 12.4877 85.8943 12.8599 85.5013 13.1517C85.1142 13.4375 84.6319 13.5804 84.0543 13.5804C83.5839 13.5804 83.1611 13.4762 82.786 13.2678C82.4168 13.0534 82.125 12.7557 81.9107 12.3746C81.7022 11.9875 81.598 11.5409 81.598 11.0348C81.598 10.5286 81.6993 10.085 81.9017 9.70393C82.1101 9.31688 82.3989 9.01915 82.7681 8.81074C83.1433 8.60233 83.572 8.49812 84.0543 8.49812C84.5188 8.49812 84.9326 8.59935 85.2959 8.80181C85.6591 9.00427 85.9419 9.29009 86.1444 9.65927C86.3468 10.0225 86.4481 10.4423 86.4481 10.9187ZM85.3852 10.5971C85.3792 10.222 85.2452 9.92128 84.9832 9.695C84.7212 9.46873 84.3967 9.35559 84.0097 9.35559C83.6583 9.35559 83.3576 9.46873 83.1075 9.695C82.8574 9.91532 82.7086 10.216 82.6609 10.5971H85.3852ZM88.3344 9.29306C88.4833 9.04297 88.6798 8.84945 88.9239 8.71249C89.174 8.56958 89.4687 8.49812 89.8082 8.49812V9.55209H89.5491C89.1502 9.55209 88.8465 9.65332 88.6381 9.85578C88.4356 10.0582 88.3344 10.4096 88.3344 10.9097V13.5H87.3161V8.57851H88.3344V9.29306Z" fill="#92400E"/>
</g>
<defs>
<filter id="filter0_dd_179984_138880" x="0.108326" y="0.162102" width="99.7799" height="21.4619" filterUnits="userSpaceOnUse" color-interpolation-filters="sRGB">
<feFlood flood-opacity="0" result="BackgroundImageFix"/>
<feColorMatrix in="SourceAlpha" type="matrix" values="0 0 0 0 0 0 0 0 0 0 0 0 0 0 0 0 0 0 127 0" result="hardAlpha"/>
<feOffset dy="0.893192"/>
<feGaussianBlur stdDeviation="1.33979"/>
<feColorMatrix type="matrix" values="0 0 0 0 0 0 0 0 0 0 0 0 0 0 0 0 0 0 0.1 0"/>
<feBlend mode="normal" in2="BackgroundImageFix" result="effect1_dropShadow_179984_138880"/>
<feColorMatrix in="SourceAlpha" type="matrix" values="0 0 0 0 0 0 0 0 0 0 0 0 0 0 0 0 0 0 127 0" result="hardAlpha"/>
<feOffset dy="0.893192"/>
<feGaussianBlur stdDeviation="0.893192"/>
<feColorMatrix type="matrix" values="0 0 0 0 0 0 0 0 0 0 0 0 0 0 0 0 0 0 0.06 0"/>
<feBlend mode="normal" in2="effect1_dropShadow_179984_138880" result="effect2_dropShadow_179984_138880"/>
<feBlend mode="normal" in="SourceGraphic" in2="effect2_dropShadow_179984_138880" result="shape"/>
</filter>
<linearGradient id="paint0_linear_179984_138880" x1="49.9983" y1="1.94849" x2="49.9983" y2="18.0514" gradientUnits="userSpaceOnUse">
<stop stop-color="#FFBD4D"/>
<stop offset="1" stop-color="#DE9213"/>
</linearGradient>
</defs>
</svg>
