<svg width="25" height="28" viewBox="0 0 25 28" fill="none" xmlns="http://www.w3.org/2000/svg">
<g clip-path="url(#clip0_179901_140028)">
<path d="M3.5 14.4375C3.5 13.2289 4.47945 12.25 5.6875 12.25H10.0625C11.2711 12.25 12.25 13.2289 12.25 14.4375V18.8125C12.25 20.0211 11.2711 21 10.0625 21H5.6875C4.47945 21 3.5 20.0211 3.5 18.8125V14.4375ZM5.25 14.4375V18.8125C5.25 19.0531 5.44578 19.25 5.6875 19.25H10.0625C10.3031 19.25 10.5 19.0531 10.5 18.8125V14.4375C10.5 14.1969 10.3031 14 10.0625 14H5.6875C5.44578 14 5.25 14.1969 5.25 14.4375ZM7 3.5H17.5V0.875C17.5 0.391781 17.8937 0 18.375 0C18.8563 0 19.25 0.391781 19.25 0.875V3.5H21C22.9305 3.5 24.5 5.0668 24.5 7V24.5C24.5 26.4305 22.9305 28 21 28H3.5C1.5668 28 0 26.4305 0 24.5V7C0 5.0668 1.5668 3.5 3.5 3.5H5.25V0.875C5.25 0.391781 5.64375 0 6.125 0C6.60625 0 7 0.391781 7 0.875V3.5ZM1.75 24.5C1.75 25.468 2.53367 26.25 3.5 26.25H21C21.968 26.25 22.75 25.468 22.75 24.5V10.5H1.75V24.5ZM1.75 7V8.75H22.75V7C22.75 6.03203 21.968 5.25 21 5.25H3.5C2.53367 5.25 1.75 6.03203 1.75 7Z" fill="#6D28D9"/>
</g>
<defs>
<clipPath id="clip0_179901_140028">
<rect width="24.5" height="28" fill="white"/>
</clipPath>
</defs>
</svg>
