<svg width="16" height="16" viewBox="0 0 16 16" fill="none" xmlns="http://www.w3.org/2000/svg">
<g clip-path="url(#clip0_180124_143344)">
<path d="M0 13C0 12.4469 0.446875 12 1 12H2.70937C3.09375 11.1156 3.975 10.5 5 10.5C6.025 10.5 6.90625 11.1156 7.29063 12H15C15.5531 12 16 12.4469 16 13C16 13.5531 15.5531 14 15 14H7.29063C6.90625 14.8844 6.025 15.5 5 15.5C3.975 15.5 3.09375 14.8844 2.70937 14H1C0.446875 14 0 13.5531 0 13ZM6 13C6 12.7348 5.89464 12.4804 5.70711 12.2929C5.51957 12.1054 5.26522 12 5 12C4.73478 12 4.48043 12.1054 4.29289 12.2929C4.10536 12.4804 4 12.7348 4 13C4 13.2652 4.10536 13.5196 4.29289 13.7071C4.48043 13.8946 4.73478 14 5 14C5.26522 14 5.51957 13.8946 5.70711 13.7071C5.89464 13.5196 6 13.2652 6 13ZM12 8C12 7.73478 11.8946 7.48043 11.7071 7.29289C11.5196 7.10536 11.2652 7 11 7C10.7348 7 10.4804 7.10536 10.2929 7.29289C10.1054 7.48043 10 7.73478 10 8C10 8.26522 10.1054 8.51957 10.2929 8.70711C10.4804 8.89464 10.7348 9 11 9C11.2652 9 11.5196 8.89464 11.7071 8.70711C11.8946 8.51957 12 8.26522 12 8ZM11 5.5C12.025 5.5 12.9062 6.11562 13.2906 7H15C15.5531 7 16 7.44688 16 8C16 8.55313 15.5531 9 15 9H13.2906C12.9062 9.88437 12.025 10.5 11 10.5C9.975 10.5 9.09375 9.88437 8.70938 9H1C0.446875 9 0 8.55313 0 8C0 7.44688 0.446875 7 1 7H8.70938C9.09375 6.11562 9.975 5.5 11 5.5ZM6 2C5.73478 2 5.48043 2.10536 5.29289 2.29289C5.10536 2.48043 5 2.73478 5 3C5 3.26522 5.10536 3.51957 5.29289 3.70711C5.48043 3.89464 5.73478 4 6 4C6.26522 4 6.51957 3.89464 6.70711 3.70711C6.89464 3.51957 7 3.26522 7 3C7 2.73478 6.89464 2.48043 6.70711 2.29289C6.51957 2.10536 6.26522 2 6 2ZM8.29062 2H15C15.5531 2 16 2.44687 16 3C16 3.55312 15.5531 4 15 4H8.29062C7.90625 4.88438 7.025 5.5 6 5.5C4.975 5.5 4.09375 4.88438 3.70937 4H1C0.446875 4 0 3.55312 0 3C0 2.44687 0.446875 2 1 2H3.70937C4.09375 1.11563 4.975 0.5 6 0.5C7.025 0.5 7.90625 1.11563 8.29062 2Z" fill="#D4D4D8"/>
</g>
<defs>
<clipPath id="clip0_180124_143344">
<rect width="16" height="16" fill="white"/>
</clipPath>
</defs>
</svg>
