<svg width="19" height="14" viewBox="0 0 19 14" fill="none" xmlns="http://www.w3.org/2000/svg">
<g clip-path="url(#clip0_180124_143337)">
<path d="M11.699 0.875H15.299C15.7968 0.875 16.199 1.26602 16.199 1.75C16.199 2.23398 15.7968 2.625 15.299 2.625H12.104C11.9578 3.33047 11.46 3.91289 10.799 4.1918V12.25H15.299C15.7968 12.25 16.199 12.641 16.199 13.125C16.199 13.609 15.7968 14 15.299 14H9.89902H4.49903C4.00121 14 3.59903 13.609 3.59903 13.125C3.59903 12.641 4.00121 12.25 4.49903 12.25H8.99903V4.1918C8.33809 3.91016 7.84028 3.32773 7.69403 2.625H4.49903C4.00121 2.625 3.59903 2.23398 3.59903 1.75C3.59903 1.26602 4.00121 0.875 4.49903 0.875H8.09902C8.50965 0.344531 9.16215 0 9.89902 0C10.6359 0 11.2884 0.344531 11.699 0.875ZM13.2628 8.75H17.3353L15.299 5.35391L13.2628 8.75ZM15.299 11.375C13.53 11.375 12.059 10.4453 11.7553 9.21758C11.6821 8.9168 11.7834 8.60781 11.9437 8.33984L14.6212 3.87734C14.7618 3.64219 15.0206 3.5 15.299 3.5C15.5775 3.5 15.8362 3.64492 15.9768 3.87734L18.6543 8.33984C18.8147 8.60781 18.9159 8.9168 18.8428 9.21758C18.539 10.4453 17.0681 11.375 15.299 11.375ZM4.46528 5.35391L2.42903 8.75H6.50434L4.46528 5.35391ZM0.924337 9.21758C0.851212 8.9168 0.952462 8.60781 1.11277 8.33984L3.79028 3.87734C3.9309 3.64219 4.18965 3.5 4.46809 3.5C4.74653 3.5 5.00527 3.64492 5.1459 3.87734L7.8234 8.33984C7.98371 8.60781 8.08496 8.9168 8.01184 9.21758C7.70527 10.4453 6.23434 11.375 4.46528 11.375C2.69621 11.375 1.22809 10.4453 0.924337 9.21758Z" fill="#D4D4D8"/>
</g>
<defs>
<clipPath id="clip0_180124_143337">
<rect width="18" height="14" fill="white" transform="translate(0.900146)"/>
</clipPath>
</defs>
</svg>
