<svg width="15" height="13" viewBox="0 0 15 13" fill="none" xmlns="http://www.w3.org/2000/svg">
<g clip-path="url(#clip0_179901_140014)">
<path d="M12.375 11.75H7.87497V3.44844C8.5195 3.28145 8.97888 2.69844 8.97888 2.00117H12.3539C12.5602 2.00117 12.7289 1.8324 12.7289 1.62617C12.7289 1.4199 12.5601 1.25117 12.3539 1.25117H8.7656C8.76267 1.24531 8.66306 0.990547 8.31724 0.756172C8.09997 0.59375 7.81169 0.5 7.49997 0.5C7.18825 0.5 6.89997 0.59375 6.66091 0.755C6.31638 0.989375 6.2156 1.24414 6.21325 1.25H2.60388C2.39761 1.25 2.22888 1.41873 2.22888 1.625C2.22888 1.83123 2.39765 2 2.60388 2H5.97888C5.97888 2.69727 6.45935 3.28039 7.08279 3.44727V11.75H2.60388C2.39761 11.75 2.22911 11.9187 2.22911 12.125C2.22911 12.3312 2.39786 12.5 2.60411 12.5H12.3541C12.5604 12.5 12.7291 12.3312 12.7291 12.125C12.75 11.9187 12.5812 11.75 12.375 11.75ZM6.72888 2C6.72888 1.58703 7.06591 1.25 7.47888 1.25C7.89185 1.25 8.22888 1.58703 8.22888 2C8.22888 2.41297 7.91247 2.75 7.49997 2.75C7.08747 2.75 6.72888 2.4132 6.72888 2ZM14.8687 7.04141L12.314 2.9375C12.2367 2.80578 12.1195 2.75 12 2.75C11.8798 2.75 11.763 2.80566 11.6868 2.91699L9.13216 7.0209C9.04134 7.15566 8.98861 7.31691 9.00326 7.48098C9.12888 9.04063 10.4226 10.25 12 10.25C13.5761 10.25 14.8711 9.03992 14.9976 7.50078C15.0117 7.33672 14.9601 7.17734 14.8687 7.04141ZM12 9.5C11.0243 9.5 10.1833 8.86438 9.87279 8H14.1173C13.8047 8.87422 12.9679 9.5 12 9.5ZM9.88591 7.25L12.0014 3.83281L14.1328 7.25H9.88591ZM5.99763 7.50078C6.01228 7.33672 5.95954 7.17547 5.86872 7.0407L3.31404 2.9368C3.23669 2.80578 3.1195 2.75 2.97888 2.75C2.88044 2.75 2.76325 2.80578 2.68591 2.91641L0.1312 7.04141C0.0403799 7.17734 -0.0123427 7.33672 0.00230569 7.50078C0.128271 9.04063 1.42357 10.25 2.97888 10.25C4.57732 10.25 5.87107 9.04063 5.99763 7.50078ZM2.97888 3.83516L5.11169 7.25H0.884271L2.97888 3.83516ZM0.872552 8H5.11708C4.80349 8.87305 3.9656 9.5 2.9988 9.5C2.02404 9.5 1.1831 8.86484 0.872552 8Z" fill="#6D28D9"/>
</g>
<defs>
<clipPath id="clip0_179901_140014">
<rect width="15" height="12" fill="white" transform="translate(0 0.5)"/>
</clipPath>
</defs>
</svg>
