<svg width="118" height="47" viewBox="0 0 118 47" fill="none" xmlns="http://www.w3.org/2000/svg">
<path d="M41.484 39.7073H36.5016L30.4565 32.2372V39.7073H26.1719V16.417H30.4565V30.4932L36.1696 23.2534H41.2846L34.9058 31.3813L41.484 39.7073Z" fill="#52525B"/>
<path d="M53.2461 23.2536H57.2671V39.7075H53.2461V38.2969C51.8679 39.6449 50.157 40.1662 47.8321 40.1662C45.6173 40.1662 43.7189 39.3272 42.1367 37.6492C40.5545 35.9711 39.7629 33.9142 39.7617 31.4786C39.7617 29.0433 40.5534 26.9867 42.1367 25.3086C43.72 23.6305 45.6185 22.7915 47.8321 22.7915C50.157 22.7915 51.9271 23.4686 53.2461 24.719V23.2536ZM45.3404 34.8206C46.2042 35.6858 47.3003 36.1184 48.6289 36.1184C49.9574 36.1184 51.0585 35.6858 51.9322 34.8206C52.8055 33.9554 53.2422 32.842 53.2422 31.4803C53.2422 30.1186 52.8055 29.0053 51.9322 28.1405C51.0589 27.2754 49.9578 26.8428 48.6289 26.8428C47.3 26.8428 46.2038 27.2754 45.3404 28.1405C44.4769 29.0057 44.0452 30.119 44.0452 31.4803C44.0452 32.8416 44.4769 33.9551 45.3404 34.8206V34.8206Z" fill="#52525B"/>
<path d="M112.453 23.2536H116.475V39.7075H112.453V38.2969C111.075 39.6449 109.365 40.1662 107.039 40.1662C104.825 40.1662 102.926 39.3272 101.344 37.6492C99.7612 35.9711 98.9695 33.9142 98.9688 31.4786C98.9688 29.0433 99.7604 26.9867 101.344 25.3086C102.927 23.6305 104.826 22.7915 107.039 22.7915C109.365 22.7915 111.135 23.4686 112.453 24.719V23.2536ZM104.548 34.8206C105.411 35.6858 106.508 36.1184 107.836 36.1184C109.165 36.1184 110.267 35.6858 111.14 34.8206C112.013 33.9554 112.45 32.842 112.45 31.4803C112.45 30.1186 112.013 29.0053 111.14 28.1405C110.267 27.2754 109.165 26.8428 107.836 26.8428C106.508 26.8428 105.411 27.2754 104.548 28.1405C103.685 29.0057 103.253 30.119 103.253 31.4803C103.253 32.8416 103.685 33.9551 104.548 34.8206Z" fill="#52525B"/>
<path d="M63.9096 24.8741C65.2464 22.5883 68.9586 22.9246 68.9586 22.9246V27.2777C63.8202 26.8089 63.9096 31.4571 63.9096 31.4571V39.7075H59.625V23.2536H63.9096V24.8741Z" fill="#52525B"/>
<path d="M79.1594 27.3343H75.4084V34.1792C75.4084 34.7498 75.5523 35.1666 75.8401 35.4295C76.1279 35.6925 76.5486 35.8405 77.1022 35.8736C77.7885 35.9058 78.476 35.9003 79.1617 35.8572V39.7076C76.216 40.0368 74.1401 39.7625 72.9338 38.885C71.7264 38.0076 71.1016 36.439 71.1016 34.1792V27.3343V23.2537V19.6426H75.4084V23.2537H79.1617L79.1594 27.3343Z" fill="#52525B"/>
<path d="M94.9082 37.6506C93.2026 39.3287 91.1211 40.1677 88.6637 40.1677C86.2064 40.1677 84.1304 39.3287 82.4358 37.6506C80.7416 35.9722 79.8945 33.9153 79.8945 31.4801C79.8945 29.0448 80.7416 26.9881 82.4358 25.3101C84.1296 23.632 86.2056 22.793 88.6637 22.793C91.1219 22.793 93.2033 23.632 94.9082 25.3101C96.6134 26.99 97.466 29.0467 97.466 31.4801C97.466 33.9134 96.6134 35.9703 94.9082 37.6506ZM85.4578 34.738C86.3102 35.5941 87.3789 36.022 88.6637 36.0216C89.9486 36.0213 91.0226 35.5934 91.8856 34.738C92.749 33.8826 93.2981 32.7964 93.2981 31.4801C93.2981 30.1637 92.749 29.0781 91.8856 28.2221C91.0222 27.3662 89.9492 26.939 88.6637 26.939C87.3783 26.939 86.3104 27.3667 85.4578 28.2221C84.6052 29.0775 84.0972 30.1637 84.0972 31.4801C84.0972 32.7964 84.6058 33.8826 85.4578 34.738Z" fill="#52525B"/>
<path d="M115.107 19.7988C114.733 19.7988 114.367 19.6888 114.056 19.4828C113.745 19.2768 113.502 18.9839 113.359 18.6413C113.216 18.2987 113.178 17.9217 113.251 17.558C113.324 17.1943 113.504 16.8602 113.769 16.598C114.034 16.3358 114.371 16.1572 114.738 16.0849C115.105 16.0125 115.486 16.0496 115.832 16.1916C116.178 16.3335 116.473 16.5738 116.681 16.8821C116.889 17.1905 117 17.553 117 17.9238C117 18.4209 116.8 18.8976 116.445 19.2491C116.09 19.6007 115.609 19.7983 115.107 19.7988V19.7988ZM115.107 16.4173C114.807 16.4173 114.512 16.5057 114.262 16.6713C114.012 16.8369 113.817 17.0723 113.702 17.3478C113.587 17.6232 113.557 17.9262 113.615 18.2186C113.674 18.511 113.819 18.7795 114.032 18.9902C114.245 19.201 114.516 19.3445 114.811 19.4026C115.106 19.4607 115.412 19.4307 115.69 19.3166C115.968 19.2024 116.205 19.0092 116.373 18.7613C116.54 18.5133 116.629 18.2219 116.629 17.9238C116.628 17.5243 116.468 17.1414 116.182 16.859C115.897 16.5766 115.511 16.4177 115.107 16.4173V16.4173Z" fill="#52525B"/>
<path d="M115.504 18.7879L115.162 18.209H114.91V18.7879H114.578V17.1206H115.251C115.4 17.1205 115.542 17.1786 115.647 17.2823C115.752 17.386 115.811 17.5267 115.811 17.6736C115.811 17.7758 115.78 17.8757 115.722 17.9602C115.664 18.0473 115.583 18.1162 115.487 18.1588L115.859 18.7879H115.504ZM114.912 17.4281V17.9213H115.254C115.285 17.9214 115.315 17.9149 115.343 17.9024C115.371 17.8898 115.395 17.8714 115.415 17.8485C115.46 17.8011 115.484 17.7383 115.483 17.6736C115.484 17.6091 115.46 17.5467 115.415 17.4998C115.395 17.4771 115.37 17.459 115.343 17.4466C115.315 17.4343 115.285 17.4279 115.254 17.4281H114.912Z" fill="#52525B"/>
<path d="M62.7037 42.7183V43.4044H61.7118V46.3586H60.9873V43.4044H60V42.7183H62.7037Z" fill="#52525B"/>
<path d="M64.3546 45.6725H65.9058V46.3586H63.6328V42.7183H65.8793V43.4044H64.3573V44.18H65.7489V44.8562H64.3573L64.3546 45.6725Z" fill="#52525B"/>
<path d="M68.6588 46.4308C68.4052 46.4387 68.1527 46.3947 67.9172 46.3013C67.6816 46.208 67.4681 46.0674 67.29 45.8884C66.9432 45.5237 66.75 45.0416 66.75 44.5405C66.75 44.0395 66.9432 43.5573 67.29 43.1927C67.4683 43.0139 67.6818 42.8734 67.9173 42.7801C68.1528 42.6868 68.4052 42.6426 68.6588 42.6503C68.9807 42.6475 69.2978 42.7272 69.5795 42.8817C69.8525 43.0272 70.0803 43.2438 70.2383 43.5082L69.6141 43.8698C69.5245 43.7078 69.3895 43.575 69.2254 43.4874C68.9957 43.3701 68.7351 43.3258 68.479 43.3606C68.223 43.3953 67.984 43.5075 67.7946 43.6817C67.5835 43.9198 67.467 44.2259 67.467 44.5428C67.467 44.8597 67.5835 45.1658 67.7946 45.4038C67.9846 45.5781 68.224 45.6902 68.4805 45.725C68.7369 45.7597 68.998 45.7155 69.2281 45.5982C69.3913 45.5131 69.5256 45.3823 69.6141 45.2221L70.2383 45.5837C70.0811 45.8478 69.8543 46.0643 69.5822 46.2102C69.2988 46.3616 68.9806 46.4376 68.6588 46.4308V46.4308Z" fill="#52525B"/>
<path d="M73.2954 42.7183H74.0136V46.3586H73.2954V44.8508H71.9267V46.3586H71.2031V42.7183H71.9267V44.1646H73.2954V42.7183Z" fill="#52525B"/>
<path d="M77.3451 42.7183H78.0696V46.3586H77.5221L75.9472 44.133V46.3586H75.2227V42.7183H75.7701L77.3451 44.9394V42.7183Z" fill="#52525B"/>
<path d="M82.3691 45.8834C82.0546 46.1994 81.6392 46.3975 81.1937 46.4437C80.7482 46.49 80.3004 46.3816 79.9266 46.1371C79.5528 45.8925 79.2764 45.527 79.1444 45.1029C79.0125 44.6789 79.0332 44.2226 79.2031 43.812C79.373 43.4014 79.6815 43.062 80.0759 42.8518C80.4704 42.6415 80.9263 42.5734 81.3657 42.6591C81.8052 42.7449 82.201 42.9791 82.4855 43.3219C82.77 43.6646 82.9256 44.0945 82.9257 44.5383C82.9307 44.7883 82.8838 45.0366 82.7881 45.268C82.6923 45.4994 82.5497 45.7088 82.3691 45.8834V45.8834ZM80.17 45.3944C80.3978 45.6097 80.7005 45.7299 81.0154 45.7299C81.3303 45.7299 81.633 45.6097 81.8608 45.3944C82.0806 45.1614 82.2029 44.8545 82.2029 44.5356C82.2029 44.2167 82.0806 43.9097 81.8608 43.6768C81.6338 43.46 81.3307 43.3388 81.0154 43.3388C80.7001 43.3388 80.397 43.46 80.17 43.6768C79.9496 43.9094 79.8269 44.2165 79.8269 44.5356C79.8269 44.8547 79.9496 45.1617 80.17 45.3944V45.3944Z" fill="#52525B"/>
<path d="M84.6884 45.6725H86.0909V46.3586H83.9648V42.7183H84.6884V45.6725Z" fill="#52525B"/>
<path d="M89.8847 45.8834C89.5702 46.1994 89.1548 46.3975 88.7093 46.4437C88.2639 46.49 87.816 46.3816 87.4422 46.1371C87.0685 45.8925 86.792 45.527 86.66 45.1029C86.5281 44.6789 86.5488 44.2226 86.7187 43.812C86.8886 43.4014 87.1971 43.062 87.5916 42.8518C87.986 42.6415 88.4419 42.5734 88.8814 42.6591C89.3208 42.7449 89.7166 42.9791 90.0011 43.3219C90.2857 43.6646 90.4412 44.0945 90.4413 44.5383C90.4462 44.7883 90.3994 45.0366 90.3036 45.268C90.2079 45.4993 90.0653 45.7088 89.8847 45.8834V45.8834ZM87.6856 45.3944C87.9132 45.6097 88.2159 45.7298 88.5306 45.7298C88.8453 45.7298 89.1479 45.6097 89.3755 45.3944C89.596 45.1617 89.7187 44.8547 89.7187 44.5356C89.7187 44.2165 89.596 43.9094 89.3755 43.6768C89.1488 43.4598 88.8458 43.3386 88.5306 43.3386C88.2153 43.3386 87.9124 43.4598 87.6856 43.6768C87.4652 43.9094 87.3425 44.2165 87.3425 44.5356C87.3425 44.8547 87.4652 45.1617 87.6856 45.3944V45.3944Z" fill="#52525B"/>
<path d="M95.0799 44.4038V44.6868C95.0799 45.2069 94.9117 45.6288 94.5753 45.9524C94.2389 46.276 93.8052 46.4369 93.2741 46.4351C93.014 46.4434 92.755 46.399 92.5128 46.3048C92.2706 46.2107 92.0502 46.0686 91.8653 45.8873C91.6839 45.7142 91.5406 45.5058 91.4442 45.2753C91.3478 45.0448 91.3004 44.7971 91.305 44.5476C91.3022 44.2966 91.3501 44.0476 91.4461 43.8153C91.5421 43.583 91.6841 43.3721 91.8638 43.1951C92.0435 43.0181 92.2571 42.8786 92.4922 42.7848C92.7272 42.6911 92.9788 42.6449 93.2321 42.6492C93.5603 42.6453 93.8839 42.725 94.172 42.8806C94.4438 43.0236 94.6719 43.2362 94.8326 43.4962L94.2131 43.8497C94.118 43.6947 93.9807 43.5693 93.8171 43.4881C93.6353 43.3928 93.4323 43.3443 93.2267 43.3471C93.0669 43.342 92.9077 43.3696 92.7592 43.4282C92.6106 43.4869 92.4759 43.5753 92.3635 43.6879C92.2513 43.8012 92.1635 43.9359 92.1053 44.0839C92.0471 44.2318 92.0198 44.3898 92.0249 44.5485C92.0198 44.7061 92.0477 44.8631 92.1069 45.0096C92.1661 45.156 92.2553 45.2886 92.3689 45.3991C92.4904 45.5131 92.6338 45.6015 92.7906 45.6591C92.9474 45.7168 93.1144 45.7424 93.2814 45.7345C93.5263 45.745 93.7686 45.682 93.9767 45.5537C94.1581 45.4336 94.2909 45.2541 94.3518 45.0466H93.2394V44.4138L95.0799 44.4038Z" fill="#52525B"/>
<path d="M96.125 42.7183H96.8495V46.3586H96.125V42.7183Z" fill="#52525B"/>
<path d="M98.7765 45.6725H100.328V46.3586H98.0547V42.7183H100.302V43.4044H98.7792V44.18H100.17V44.8562H98.7783L98.7765 45.6725Z" fill="#52525B"/>
<path d="M102.619 46.4317C102.296 46.4427 101.976 46.3587 101.7 46.1903C101.457 46.0346 101.272 45.8031 101.176 45.5322L101.795 45.1706C101.938 45.5424 102.22 45.7281 102.64 45.7275C102.797 45.7402 102.953 45.7017 103.086 45.6181C103.132 45.5844 103.17 45.5397 103.194 45.488C103.219 45.4363 103.231 45.3794 103.227 45.3223C103.224 45.2652 103.207 45.2097 103.177 45.161C103.147 45.1122 103.105 45.0717 103.055 45.0431C102.858 44.941 102.65 44.8633 102.435 44.8117C102.293 44.7715 102.154 44.7229 102.018 44.6662C101.897 44.6144 101.783 44.5492 101.678 44.4718C101.566 44.3918 101.476 44.2852 101.417 44.1618C101.354 44.0247 101.323 43.8756 101.325 43.7251C101.319 43.5758 101.348 43.427 101.41 43.2905C101.471 43.1539 101.563 43.0332 101.679 42.9377C101.919 42.7407 102.222 42.6363 102.533 42.644C102.81 42.6381 103.082 42.7129 103.316 42.8591C103.546 43.0068 103.729 43.215 103.845 43.4603L103.235 43.8083C103.089 43.4967 102.855 43.3406 102.533 43.34C102.406 43.333 102.281 43.3687 102.178 43.4413C102.137 43.4721 102.104 43.512 102.082 43.5577C102.06 43.6034 102.049 43.6536 102.05 43.7043C102.049 43.7589 102.061 43.813 102.087 43.8616C102.112 43.9101 102.149 43.9518 102.194 43.9828C102.366 44.0871 102.552 44.1651 102.747 44.2142C102.859 44.2485 102.945 44.2757 103.002 44.2946C103.058 44.3136 103.139 44.3435 103.238 44.385C103.318 44.4149 103.396 44.4524 103.469 44.4971C103.533 44.5399 103.594 44.5867 103.651 44.6373C103.714 44.6883 103.768 44.7494 103.811 44.8181C103.851 44.8894 103.881 44.9653 103.902 45.044C103.929 45.1382 103.942 45.2356 103.942 45.3333C103.947 45.4862 103.917 45.6383 103.853 45.7774C103.789 45.9165 103.693 46.0387 103.572 46.1343C103.332 46.3325 103.015 46.4317 102.619 46.4317Z" fill="#52525B"/>
<path d="M108.639 45.6725H110.04V46.3586H107.914V42.7183H108.639V45.6725Z" fill="#52525B"/>
<path d="M113.035 42.7183V43.4044H112.044V46.3586H111.319V43.4044H110.332V42.7183H113.035Z" fill="#52525B"/>
<path d="M115.421 42.7187C115.657 42.7133 115.891 42.7573 116.109 42.8478C116.327 42.9383 116.522 43.0733 116.684 43.2439C117.01 43.5979 117.19 44.0598 117.19 44.5389C117.19 45.018 117.01 45.4798 116.684 45.8339C116.522 46.0045 116.327 46.1395 116.109 46.23C115.891 46.3205 115.657 46.3645 115.421 46.3591H113.961V42.7187H115.421ZM115.421 45.673C115.565 45.6782 115.71 45.6529 115.843 45.5986C115.977 45.5444 116.098 45.4625 116.197 45.3584C116.391 45.1282 116.497 44.8383 116.497 44.5389C116.497 44.2395 116.391 43.9495 116.197 43.7194C116.098 43.6155 115.977 43.5336 115.843 43.4794C115.709 43.4252 115.565 43.3997 115.421 43.4048H114.691V45.673H115.421Z" fill="#52525B"/>
<path d="M20.4353 39.7072H10.3242V29.6919C13.0055 29.6919 15.5771 30.747 17.4732 32.6252C19.3693 34.5034 20.4348 37.0508 20.4353 39.7072V39.7072Z" fill="#27B373"/>
<path d="M10.3242 29.692V19.6738H20.4353C20.4355 20.9894 20.1741 22.2921 19.6661 23.5076C19.158 24.7231 18.4133 25.8275 17.4744 26.7578C16.5354 27.6881 15.4207 28.4261 14.1939 28.9295C12.9671 29.433 11.6521 29.692 10.3242 29.692Z" fill="#F3BC2F"/>
<path d="M10.3258 39.7074C4.62296 39.7074 0 35.2217 0 29.6921C0 24.1625 4.62296 19.6768 10.3258 19.6768" fill="#0078D4"/>
<path d="M0 10C5.7028 10 10.3258 14.3323 10.3258 19.6768C10.3258 25.0213 5.7028 29.3535 0 29.3535V10Z" fill="#EE3E36"/>
<path d="M64.61 5.12C64.61 5.47333 64.5267 5.80667 64.36 6.12C64.1933 6.43333 63.9267 6.69 63.56 6.89C63.1933 7.08333 62.7233 7.18 62.15 7.18H60.89V10H59.75V3.05H62.15C62.6833 3.05 63.1333 3.14333 63.5 3.33C63.8733 3.51 64.15 3.75667 64.33 4.07C64.5167 4.38333 64.61 4.73333 64.61 5.12ZM62.15 6.25C62.5833 6.25 62.9067 6.15333 63.12 5.96C63.3333 5.76 63.44 5.48 63.44 5.12C63.44 4.36 63.01 3.98 62.15 3.98H60.89V6.25H62.15ZM67.9873 10.09C67.4673 10.09 66.9973 9.97333 66.5773 9.74C66.1573 9.5 65.8273 9.16667 65.5873 8.74C65.3473 8.30667 65.2273 7.80667 65.2273 7.24C65.2273 6.68 65.3506 6.18333 65.5973 5.75C65.8439 5.31667 66.1806 4.98333 66.6073 4.75C67.0339 4.51667 67.5106 4.4 68.0373 4.4C68.5639 4.4 69.0406 4.51667 69.4673 4.75C69.8939 4.98333 70.2306 5.31667 70.4773 5.75C70.7239 6.18333 70.8473 6.68 70.8473 7.24C70.8473 7.8 70.7206 8.29667 70.4673 8.73C70.2139 9.16333 69.8673 9.5 69.4273 9.74C68.9939 9.97333 68.5139 10.09 67.9873 10.09ZM67.9873 9.1C68.2806 9.1 68.5539 9.03 68.8073 8.89C69.0673 8.75 69.2773 8.54 69.4373 8.26C69.5973 7.98 69.6773 7.64 69.6773 7.24C69.6773 6.84 69.6006 6.50333 69.4473 6.23C69.2939 5.95 69.0906 5.74 68.8373 5.6C68.5839 5.46 68.3106 5.39 68.0173 5.39C67.7239 5.39 67.4506 5.46 67.1973 5.6C66.9506 5.74 66.7539 5.95 66.6073 6.23C66.4606 6.50333 66.3873 6.84 66.3873 7.24C66.3873 7.83333 66.5373 8.29333 66.8373 8.62C67.1439 8.94 67.5273 9.1 67.9873 9.1ZM79.2742 4.49L77.5642 10H76.3642L75.2542 5.93L74.1442 10H72.9442L71.2242 4.49H72.3842L73.5342 8.92L74.7042 4.49H75.8942L77.0142 8.9L78.1542 4.49H79.2742ZM85.0762 7.11C85.0762 7.31667 85.0628 7.50333 85.0362 7.67H80.8262C80.8595 8.11 81.0228 8.46333 81.3162 8.73C81.6095 8.99667 81.9695 9.13 82.3962 9.13C83.0095 9.13 83.4428 8.87333 83.6962 8.36H84.9262C84.7595 8.86667 84.4562 9.28333 84.0162 9.61C83.5828 9.93 83.0428 10.09 82.3962 10.09C81.8695 10.09 81.3962 9.97333 80.9762 9.74C80.5628 9.5 80.2362 9.16667 79.9962 8.74C79.7628 8.30667 79.6462 7.80667 79.6462 7.24C79.6462 6.67333 79.7595 6.17667 79.9862 5.75C80.2195 5.31667 80.5428 4.98333 80.9562 4.75C81.3762 4.51667 81.8562 4.4 82.3962 4.4C82.9162 4.4 83.3795 4.51333 83.7862 4.74C84.1928 4.96667 84.5095 5.28667 84.7362 5.7C84.9628 6.10667 85.0762 6.57667 85.0762 7.11ZM83.8862 6.75C83.8795 6.33 83.7295 5.99333 83.4362 5.74C83.1428 5.48667 82.7795 5.36 82.3462 5.36C81.9528 5.36 81.6162 5.48667 81.3362 5.74C81.0562 5.98667 80.8895 6.32333 80.8362 6.75H83.8862ZM87.238 5.29C87.4047 5.01 87.6247 4.79333 87.898 4.64C88.178 4.48 88.508 4.4 88.888 4.4V5.58H88.598C88.1514 5.58 87.8114 5.69333 87.578 5.92C87.3514 6.14667 87.238 6.54 87.238 7.1V10H86.098V4.49H87.238V5.29ZM94.8859 7.11C94.8859 7.31667 94.8726 7.50333 94.8459 7.67H90.6359C90.6693 8.11 90.8326 8.46333 91.1259 8.73C91.4193 8.99667 91.7793 9.13 92.2059 9.13C92.8193 9.13 93.2526 8.87333 93.5059 8.36H94.7359C94.5693 8.86667 94.2659 9.28333 93.8259 9.61C93.3926 9.93 92.8526 10.09 92.2059 10.09C91.6793 10.09 91.2059 9.97333 90.7859 9.74C90.3726 9.5 90.0459 9.16667 89.8059 8.74C89.5726 8.30667 89.4559 7.80667 89.4559 7.24C89.4559 6.67333 89.5693 6.17667 89.7959 5.75C90.0293 5.31667 90.3526 4.98333 90.7659 4.75C91.1859 4.51667 91.6659 4.4 92.2059 4.4C92.7259 4.4 93.1893 4.51333 93.5959 4.74C94.0026 4.96667 94.3193 5.28667 94.5459 5.7C94.7726 6.10667 94.8859 6.57667 94.8859 7.11ZM93.6959 6.75C93.6893 6.33 93.5393 5.99333 93.2459 5.74C92.9526 5.48667 92.5893 5.36 92.1559 5.36C91.7626 5.36 91.4259 5.48667 91.1459 5.74C90.8659 5.98667 90.6993 6.32333 90.6459 6.75H93.6959ZM95.5278 7.22C95.5278 6.66667 95.6411 6.17667 95.8678 5.75C96.1011 5.32333 96.4145 4.99333 96.8078 4.76C97.2078 4.52 97.6511 4.4 98.1378 4.4C98.4978 4.4 98.8511 4.48 99.1978 4.64C99.5511 4.79333 99.8311 5 100.038 5.26V2.6H101.188V10H100.038V9.17C99.8511 9.43667 99.5911 9.65667 99.2578 9.83C98.9311 10.0033 98.5545 10.09 98.1278 10.09C97.6478 10.09 97.2078 9.97 96.8078 9.73C96.4145 9.48333 96.1011 9.14333 95.8678 8.71C95.6411 8.27 95.5278 7.77333 95.5278 7.22ZM100.038 7.24C100.038 6.86 99.9578 6.53 99.7978 6.25C99.6445 5.97 99.4411 5.75667 99.1878 5.61C98.9345 5.46333 98.6611 5.39 98.3678 5.39C98.0745 5.39 97.8011 5.46333 97.5478 5.61C97.2945 5.75 97.0878 5.96 96.9278 6.24C96.7745 6.51333 96.6978 6.84 96.6978 7.22C96.6978 7.6 96.7745 7.93333 96.9278 8.22C97.0878 8.50667 97.2945 8.72667 97.5478 8.88C97.8078 9.02667 98.0811 9.1 98.3678 9.1C98.6611 9.1 98.9345 9.02667 99.1878 8.88C99.4411 8.73333 99.6445 8.52 99.7978 8.24C99.9578 7.95333 100.038 7.62 100.038 7.24ZM106.223 5.31C106.416 5.04333 106.679 4.82667 107.013 4.66C107.353 4.48667 107.729 4.4 108.143 4.4C108.629 4.4 109.069 4.51667 109.463 4.75C109.856 4.98333 110.166 5.31667 110.393 5.75C110.619 6.17667 110.733 6.66667 110.733 7.22C110.733 7.77333 110.619 8.27 110.393 8.71C110.166 9.14333 109.853 9.48333 109.453 9.73C109.059 9.97 108.623 10.09 108.143 10.09C107.716 10.09 107.336 10.0067 107.003 9.84C106.676 9.67333 106.416 9.46 106.223 9.2V10H105.083V2.6H106.223V5.31ZM109.573 7.22C109.573 6.84 109.493 6.51333 109.333 6.24C109.179 5.96 108.973 5.75 108.713 5.61C108.459 5.46333 108.186 5.39 107.893 5.39C107.606 5.39 107.333 5.46333 107.073 5.61C106.819 5.75667 106.613 5.97 106.453 6.25C106.299 6.53 106.223 6.86 106.223 7.24C106.223 7.62 106.299 7.95333 106.453 8.24C106.613 8.52 106.819 8.73333 107.073 8.88C107.333 9.02667 107.606 9.1 107.893 9.1C108.186 9.1 108.459 9.02667 108.713 8.88C108.973 8.72667 109.179 8.50667 109.333 8.22C109.493 7.93333 109.573 7.6 109.573 7.22ZM116.72 4.49L113.34 12.59H112.16L113.28 9.91L111.11 4.49H112.38L113.93 8.69L115.54 4.49H116.72Z" fill="#52525B"/>
</svg>
