<svg width="124" height="123" viewBox="0 0 124 123" fill="none" xmlns="http://www.w3.org/2000/svg">
<path d="M112.578 110.661H12.2325C11.8411 110.661 11.4658 110.507 11.1891 110.231C10.9123 109.955 10.7568 109.581 10.7568 109.191C10.7568 108.801 10.9123 108.427 11.1891 108.152C11.4658 107.876 11.8411 107.721 12.2325 107.721H112.578C112.97 107.721 113.345 107.876 113.622 108.152C113.899 108.427 114.054 108.801 114.054 109.191C114.054 109.581 113.899 109.955 113.622 110.231C113.345 110.507 112.97 110.661 112.578 110.661Z" fill="#6D28D9"/>
<path d="M108.757 110.661H92.7904C92.5601 110.66 92.3333 110.604 92.1283 110.5C91.9233 110.395 91.7458 110.244 91.6099 110.059C91.4703 109.871 91.3774 109.654 91.3389 109.424C91.3004 109.194 91.3174 108.958 91.3885 108.736L94.517 99.194C94.617 98.8869 94.8157 98.6212 95.0824 98.4379C95.3491 98.2545 95.669 98.1637 95.9926 98.1795H105.703C106.014 98.1797 106.317 98.278 106.569 98.4602C106.82 98.6424 107.008 98.8992 107.104 99.194L110.233 108.736C110.304 108.958 110.321 109.194 110.283 109.424C110.244 109.654 110.151 109.871 110.012 110.059C109.868 110.254 109.679 110.412 109.46 110.517C109.241 110.622 109 110.672 108.757 110.661ZM94.8269 107.721H106.677L104.507 101.12H96.9961L94.8269 107.721Z" fill="#6D28D9"/>
<path d="M105.629 101.12H95.9187C95.5274 101.12 95.152 100.965 94.8753 100.689C94.5985 100.414 94.4431 100.04 94.4431 99.6497V56.7495C94.4431 56.3596 94.5985 55.9856 94.8753 55.7099C95.152 55.4342 95.5274 55.2793 95.9187 55.2793H105.629C106.02 55.2793 106.395 55.4342 106.672 55.7099C106.949 55.9856 107.104 56.3596 107.104 56.7495V99.6497C107.104 100.04 106.949 100.414 106.672 100.689C106.395 100.965 106.02 101.12 105.629 101.12ZM97.3944 98.1795H104.153V58.2197H97.3944V98.1795Z" fill="#6D28D9"/>
<path d="M105.629 58.2196H95.9187C95.6896 58.2196 95.4637 58.1665 95.2588 58.0644C95.0539 57.9623 94.8757 57.8141 94.7382 57.6316C94.6007 57.449 94.5079 57.237 94.4669 57.0124C94.4259 56.7879 94.438 56.5569 94.5021 56.3378L99.298 39.6805C99.3874 39.3751 99.5738 39.1069 99.8293 38.916C100.085 38.7251 100.395 38.622 100.715 38.622C101.034 38.622 101.345 38.7251 101.6 38.916C101.856 39.1069 102.042 39.3751 102.131 39.6805L106.986 56.2643C107.05 56.4834 107.063 56.7144 107.022 56.9389C106.981 57.1635 106.888 57.3755 106.75 57.558C106.627 57.7465 106.461 57.9042 106.267 58.0189C106.072 58.1336 105.854 58.2023 105.629 58.2196ZM97.8224 55.2792H103.725L100.774 45.4143L97.8224 55.2792Z" fill="#6D28D9"/>
<path d="M105.629 65.0561H95.9187C95.5274 65.0561 95.152 64.9012 94.8753 64.6254C94.5985 64.3497 94.4431 63.9758 94.4431 63.5859C94.4431 63.1959 94.5985 62.822 94.8753 62.5463C95.152 62.2706 95.5274 62.1157 95.9187 62.1157H105.629C106.02 62.1157 106.395 62.2706 106.672 62.5463C106.949 62.822 107.104 63.1959 107.104 63.5859C107.104 63.9758 106.949 64.3497 106.672 64.6254C106.395 64.9012 106.02 65.0561 105.629 65.0561Z" fill="#6D28D9"/>
<path d="M84.9985 84.198C84.6071 84.198 84.2318 84.0431 83.955 83.7674C83.6783 83.4917 83.5228 83.1177 83.5228 82.7278V55.4851H78.0333V80.4784C78.0333 80.8683 77.8778 81.2423 77.6011 81.518C77.3244 81.7937 76.949 81.9486 76.5576 81.9486C76.1663 81.9486 75.7909 81.7937 75.5142 81.518C75.2374 81.2423 75.082 80.8683 75.082 80.4784V54.0149C75.082 53.625 75.2374 53.2511 75.5142 52.9754C75.7909 52.6996 76.1663 52.5447 76.5576 52.5447H84.9985C85.3899 52.5447 85.7652 52.6996 86.042 52.9754C86.3187 53.2511 86.4742 53.625 86.4742 54.0149V82.7278C86.4742 83.1177 86.3187 83.4917 86.042 83.7674C85.7652 84.0431 85.3899 84.198 84.9985 84.198Z" fill="#6D28D9"/>
<path d="M84.9985 55.4851H76.5576C76.3285 55.4851 76.1026 55.4319 75.8977 55.3298C75.6928 55.2278 75.5145 55.0796 75.3771 54.897C75.2396 54.7144 75.1467 54.5024 75.1058 54.2779C75.0648 54.0533 75.0768 53.8223 75.141 53.6032L79.3614 39.1806C79.4508 38.8752 79.6372 38.607 79.8927 38.4161C80.1481 38.2252 80.4588 38.1221 80.7781 38.1221C81.0974 38.1221 81.408 38.2252 81.6635 38.4161C81.9189 38.607 82.1053 38.8752 82.1947 39.1806L86.4151 53.6032C86.4793 53.8223 86.4914 54.0533 86.4504 54.2779C86.4094 54.5024 86.3165 54.7144 86.179 54.897C86.0416 55.0796 85.8633 55.2278 85.6584 55.3298C85.4535 55.4319 85.2276 55.4851 84.9985 55.4851ZM78.5203 52.5447H83.0654L80.7781 44.8409L78.5203 52.5447Z" fill="#6D28D9"/>
<path d="M84.9985 61.4982H76.5576C76.1663 61.4982 75.7909 61.3433 75.5142 61.0676C75.2374 60.7919 75.082 60.4179 75.082 60.028C75.082 59.6381 75.2374 59.2642 75.5142 58.9884C75.7909 58.7127 76.1663 58.5578 76.5576 58.5578H84.9985C85.3899 58.5578 85.7652 58.7127 86.042 58.9884C86.3187 59.2642 86.4742 59.6381 86.4742 60.028C86.4742 60.4179 86.3187 60.7919 86.042 61.0676C85.7652 61.3433 85.3899 61.4982 84.9985 61.4982Z" fill="#6D28D9"/>
<path d="M39.8133 84.198C39.4219 84.198 39.0466 84.0431 38.7698 83.7674C38.4931 83.4917 38.3376 83.1177 38.3376 82.7278V54.0149C38.3376 53.625 38.4931 53.2511 38.7698 52.9754C39.0466 52.6996 39.4219 52.5447 39.8133 52.5447H48.2541C48.6455 52.5447 49.0209 52.6996 49.2976 52.9754C49.5743 53.2511 49.7298 53.625 49.7298 54.0149V80.4784C49.7298 80.8683 49.5743 81.2423 49.2976 81.518C49.0209 81.7937 48.6455 81.9486 48.2541 81.9486C47.8628 81.9486 47.4874 81.7937 47.2107 81.518C46.9339 81.2423 46.7785 80.8683 46.7785 80.4784V55.4851H41.289V82.7278C41.289 83.1177 41.1335 83.4917 40.8567 83.7674C40.58 84.0431 40.2046 84.198 39.8133 84.198Z" fill="#6D28D9"/>
<path d="M48.2541 55.4851H39.8133C39.5842 55.4851 39.3582 55.4319 39.1533 55.3298C38.9484 55.2278 38.7702 55.0796 38.6327 54.897C38.4953 54.7144 38.4024 54.5024 38.3614 54.2779C38.3204 54.0533 38.3325 53.8223 38.3966 53.6032L42.6171 39.1806C42.7065 38.8752 42.8929 38.607 43.1483 38.4161C43.4037 38.2252 43.7144 38.1221 44.0337 38.1221C44.353 38.1221 44.6637 38.2252 44.9191 38.4161C45.1745 38.607 45.361 38.8752 45.4504 39.1806L49.6708 53.6032C49.7349 53.8223 49.747 54.0533 49.706 54.2779C49.665 54.5024 49.5721 54.7144 49.4347 54.897C49.2972 55.0796 49.119 55.2278 48.9141 55.3298C48.7092 55.4319 48.4832 55.4851 48.2541 55.4851ZM41.7759 52.5447H46.2915L44.0337 44.8409L41.7759 52.5447Z" fill="#6D28D9"/>
<path d="M48.2541 61.4982H39.8133C39.4219 61.4982 39.0466 61.3433 38.7698 61.0676C38.4931 60.7919 38.3376 60.4179 38.3376 60.028C38.3376 59.6381 38.4931 59.2642 38.7698 58.9884C39.0466 58.7127 39.4219 58.5578 39.8133 58.5578H48.2541C48.6455 58.5578 49.0209 58.7127 49.2976 58.9884C49.5743 59.2642 49.7298 59.6381 49.7298 60.028C49.7298 60.4179 49.5743 60.7919 49.2976 61.0676C49.0209 61.3433 48.6455 61.4982 48.2541 61.4982Z" fill="#6D28D9"/>
<path d="M32.0218 110.661H16.055C15.8247 110.66 15.5979 110.604 15.3929 110.5C15.1879 110.395 15.0104 110.244 14.8745 110.059C14.7349 109.871 14.642 109.654 14.6035 109.424C14.565 109.194 14.582 108.958 14.6531 108.736L17.7815 99.194C17.8816 98.8869 18.0803 98.6212 18.347 98.4379C18.6137 98.2545 18.9336 98.1637 19.2572 98.1795H28.9672C29.2908 98.1637 29.6107 98.2545 29.8774 98.4379C30.1441 98.6212 30.3428 98.8869 30.4428 99.194L33.5713 108.736C33.6424 108.958 33.6594 109.194 33.6209 109.424C33.5824 109.654 33.4895 109.871 33.3499 110.059C33.2 110.265 32.9987 110.429 32.7659 110.535C32.5331 110.641 32.2766 110.684 32.0218 110.661ZM18.1357 107.721H29.9411L27.7719 101.12H20.2607L18.1357 107.721Z" fill="#6D28D9"/>
<path d="M28.8933 101.12H19.1833C18.7919 101.12 18.4166 100.965 18.1399 100.689C17.8631 100.414 17.7076 100.04 17.7076 99.6497V56.7495C17.7076 56.3596 17.8631 55.9856 18.1399 55.7099C18.4166 55.4342 18.7919 55.2793 19.1833 55.2793H28.8933C29.2846 55.2793 29.66 55.4342 29.9367 55.7099C30.2135 55.9856 30.3689 56.3596 30.3689 56.7495V99.6497C30.3689 100.04 30.2135 100.414 29.9367 100.689C29.66 100.965 29.2846 101.12 28.8933 101.12ZM20.659 98.1795H27.4176V58.2197H20.659V98.1795Z" fill="#6D28D9"/>
<path d="M28.8933 58.2196H19.1833C18.9542 58.2196 18.7283 58.1665 18.5234 58.0644C18.3185 57.9623 18.1402 57.8141 18.0028 57.6316C17.8653 57.449 17.7724 57.237 17.7314 57.0124C17.6905 56.7879 17.7025 56.5569 17.7667 56.3378L22.5626 39.6805C22.652 39.3751 22.8384 39.1069 23.0939 38.916C23.3493 38.7251 23.66 38.622 23.9793 38.622C24.2986 38.622 24.6092 38.7251 24.8647 38.916C25.1201 39.1069 25.3065 39.3751 25.3959 39.6805L30.2509 56.2643C30.315 56.4834 30.3271 56.7144 30.2861 56.9389C30.2451 57.1635 30.1522 57.3755 30.0148 57.558C29.8912 57.7465 29.7258 57.9042 29.5313 58.0189C29.3369 58.1336 29.1186 58.2023 28.8933 58.2196ZM21.0869 55.2792H26.9896L24.0383 45.4143L21.0869 55.2792Z" fill="#6D28D9"/>
<path d="M28.8933 65.0561H19.1833C18.7919 65.0561 18.4166 64.9012 18.1399 64.6254C17.8631 64.3497 17.7076 63.9758 17.7076 63.5859C17.7076 63.1959 17.8631 62.822 18.1399 62.5463C18.4166 62.2706 18.7919 62.1157 19.1833 62.1157H28.8933C29.2846 62.1157 29.66 62.2706 29.9367 62.5463C30.2135 62.822 30.3689 63.1959 30.3689 63.5859C30.3689 63.9758 30.2135 64.3497 29.9367 64.6254C29.66 64.9012 29.2846 65.0561 28.8933 65.0561Z" fill="#6D28D9"/>
<path d="M92.79 110.661L32.0218 110.661C31.7367 110.661 31.4577 110.578 31.2189 110.423C30.9801 110.267 30.7915 110.047 30.676 109.787C30.5605 109.527 30.523 109.24 30.568 108.959C30.613 108.679 30.7387 108.417 30.9297 108.206L61.3286 75.8619C61.4667 75.715 61.6335 75.5979 61.8188 75.5179C62.0041 75.4378 62.2039 75.3965 62.4059 75.3965C62.6078 75.3965 62.8076 75.4378 62.9929 75.5179C63.1782 75.5979 63.3451 75.715 63.4831 75.8619L93.882 108.206C94.0779 108.417 94.2076 108.679 94.2553 108.962C94.3031 109.245 94.2666 109.536 94.1505 109.799C94.0345 110.061 93.8438 110.284 93.602 110.44C93.3603 110.596 93.078 110.678 92.79 110.676V110.661ZM35.4158 107.721H89.396L62.4059 79.0081L35.4158 107.721Z" fill="#6D28D9"/>
<path d="M80.1143 110.661C79.7229 110.661 79.3475 110.507 79.0708 110.231C78.7941 109.955 78.6386 109.581 78.6386 109.191V95.6949C78.6386 95.305 78.7941 94.931 79.0708 94.6553C79.3475 94.3796 79.7229 94.2247 80.1143 94.2247C80.5056 94.2247 80.881 94.3796 81.1577 94.6553C81.4345 94.931 81.5899 95.305 81.5899 95.6949V109.191C81.5899 109.581 81.4345 109.955 81.1577 110.231C80.881 110.507 80.5056 110.661 80.1143 110.661Z" fill="#6D28D9"/>
<path d="M68.3088 110.661C67.9174 110.661 67.5421 110.507 67.2654 110.231C66.9886 109.955 66.8331 109.581 66.8331 109.191V83.1248C66.8331 82.7349 66.9886 82.3609 67.2654 82.0852C67.5421 81.8095 67.9174 81.6546 68.3088 81.6546C68.7002 81.6546 69.0755 81.8095 69.3523 82.0852C69.629 82.3609 69.7845 82.7349 69.7845 83.1248V109.191C69.7845 109.581 69.629 109.955 69.3523 110.231C69.0755 110.507 68.7002 110.661 68.3088 110.661Z" fill="#6D28D9"/>
<path d="M56.5034 110.661C56.112 110.661 55.7366 110.507 55.4599 110.231C55.1832 109.955 55.0277 109.581 55.0277 109.191V83.1248C55.0277 82.7349 55.1832 82.3609 55.4599 82.0852C55.7366 81.8095 56.112 81.6546 56.5034 81.6546C56.8947 81.6546 57.2701 81.8095 57.5468 82.0852C57.8236 82.3609 57.979 82.7349 57.979 83.1248V109.191C57.979 109.581 57.8236 109.955 57.5468 110.231C57.2701 110.507 56.8947 110.661 56.5034 110.661Z" fill="#6D28D9"/>
<path d="M44.6979 110.661C44.3065 110.661 43.9312 110.507 43.6545 110.231C43.3777 109.955 43.2222 109.581 43.2222 109.191V95.6949C43.2222 95.305 43.3777 94.931 43.6545 94.6553C43.9312 94.3796 44.3065 94.2247 44.6979 94.2247C45.0893 94.2247 45.4646 94.3796 45.7414 94.6553C46.0181 94.931 46.1736 95.305 46.1736 95.6949V109.191C46.1736 109.581 46.0181 109.955 45.7414 110.231C45.4646 110.507 45.0893 110.661 44.6979 110.661Z" fill="#6D28D9"/>
<path d="M88.9681 106.589C88.6166 106.594 88.2747 106.474 88.0042 106.25C87.7336 106.027 87.5522 105.714 87.4924 105.369L83.7147 83.9186L62.037 78.2731C61.8365 78.2379 61.6454 78.1618 61.4758 78.0494C61.3062 77.9371 61.1618 77.791 61.0517 77.6204C60.9415 77.4498 60.868 77.2583 60.8357 77.0579C60.8035 76.8576 60.8132 76.6528 60.8643 76.4564C60.9153 76.26 61.0067 76.0763 61.1325 75.9167C61.2583 75.7572 61.4159 75.6254 61.5954 75.5295C61.7748 75.4336 61.9723 75.3758 62.1753 75.3596C62.3782 75.3434 62.5824 75.3693 62.7749 75.4356L85.3822 81.3164C85.6542 81.3876 85.9001 81.5347 86.0909 81.7405C86.2818 81.9463 86.4096 82.2021 86.4595 82.4778L90.4438 104.869C90.4778 105.059 90.4738 105.254 90.4322 105.443C90.3905 105.631 90.3119 105.81 90.2009 105.968C90.0899 106.127 89.9486 106.262 89.7852 106.366C89.6218 106.47 89.4394 106.541 89.2485 106.574L88.9681 106.589Z" fill="#6D28D9"/>
<path d="M35.8438 106.589H35.593C35.3979 106.559 35.2109 106.49 35.0431 106.387C34.8752 106.283 34.7299 106.147 34.6157 105.987C34.5015 105.826 34.4207 105.645 34.3782 105.453C34.3357 105.261 34.3323 105.062 34.3682 104.869L38.3525 82.4778C38.4023 82.2021 38.5302 81.9463 38.721 81.7405C38.9119 81.5347 39.1578 81.3876 39.4297 81.3164L62.0371 75.4356C62.2296 75.3693 62.4337 75.3434 62.6367 75.3596C62.8397 75.3758 63.0371 75.4336 63.2166 75.5295C63.3961 75.6254 63.5537 75.7572 63.6795 75.9167C63.8053 76.0763 63.8966 76.26 63.9477 76.4564C63.9988 76.6528 64.0085 76.8576 63.9762 77.0579C63.944 77.2583 63.8705 77.4498 63.7603 77.6204C63.6501 77.791 63.5057 77.9371 63.3362 78.0494C63.1666 78.1618 62.9755 78.2379 62.7749 78.2731L41.0973 83.9186L37.3195 105.369C37.2598 105.714 37.0783 106.027 36.8078 106.25C36.5372 106.474 36.1954 106.594 35.8438 106.589Z" fill="#6D28D9"/>
</svg>
