<svg width="137" height="24" viewBox="0 0 137 24" fill="none" xmlns="http://www.w3.org/2000/svg">
<g clip-path="url(#clip0_179901_139988)">
<path d="M12.7649 17.27L19.163 21L17.4651 13.97L23.1178 9.24L15.674 8.63L12.7649 2L9.85569 8.63L2.41193 9.24L8.06463 13.97L6.36675 21L12.7649 17.27Z" fill="#F59E0B"/>
</g>
<g clip-path="url(#clip1_179901_139988)">
<path d="M41.7537 17.27L48.1518 21L46.4539 13.97L52.1066 9.24L44.6629 8.63L41.7537 2L38.8445 8.63L31.4008 9.24L37.0535 13.97L35.3556 21L41.7537 17.27Z" fill="#F59E0B"/>
</g>
<g clip-path="url(#clip2_179901_139988)">
<path d="M70.7409 17.27L77.1391 21L75.4412 13.97L81.0939 9.24L73.6501 8.63L70.7409 2L67.8318 8.63L60.388 9.24L66.0407 13.97L64.3428 21L70.7409 17.27Z" fill="#F59E0B"/>
</g>
<g clip-path="url(#clip3_179901_139988)">
<path d="M134.93 9.24L127.486 8.62L124.577 2L121.667 8.63L114.224 9.24L119.876 13.97L118.178 21L124.577 17.27L130.975 21L129.287 13.97L134.93 9.24ZM124.577 15.4L120.684 17.67L121.719 13.39L118.282 10.51L122.817 10.13L124.577 6.1L126.347 10.14L130.882 10.52L127.444 13.4L128.48 17.68L124.577 15.4Z" fill="#F59E0B"/>
</g>
<g clip-path="url(#clip4_179901_139988)">
<path d="M110.082 9.24L102.638 8.62L99.7292 2L96.82 8.63L89.3763 9.24L95.029 13.97L93.3311 21L99.7292 17.27L106.127 21L104.44 13.97L110.082 9.24ZM99.7292 15.4V6.1L101.5 10.14L106.034 10.52L102.597 13.4L103.632 17.68L99.7292 15.4Z" fill="#F59E0B"/>
</g>
<defs>
<clipPath id="clip0_179901_139988">
<rect width="24.8471" height="24" fill="white" transform="translate(0.341309)"/>
</clipPath>
<clipPath id="clip1_179901_139988">
<rect width="24.8471" height="24" fill="white" transform="translate(29.3301)"/>
</clipPath>
<clipPath id="clip2_179901_139988">
<rect width="24.8471" height="24" fill="white" transform="translate(58.3174)"/>
</clipPath>
<clipPath id="clip3_179901_139988">
<rect width="24.8471" height="24" fill="white" transform="translate(112.153)"/>
</clipPath>
<clipPath id="clip4_179901_139988">
<rect width="24.8471" height="24" fill="white" transform="translate(87.3057)"/>
</clipPath>
</defs>
</svg>
