<svg width="123" height="123" viewBox="0 0 123 123" fill="none" xmlns="http://www.w3.org/2000/svg">
<path d="M66.5048 83.5404C65.663 83.2974 64.7856 83.7901 64.5448 84.6415L57.7666 108.631C57.526 109.483 58.0135 110.37 58.8555 110.613C59.0011 110.655 59.1476 110.675 59.2918 110.675C59.9815 110.675 60.6163 110.216 60.8155 109.512L67.5935 85.5226C67.8342 84.6712 67.3466 83.7839 66.5048 83.5404Z" fill="#6D28D9"/>
<path d="M92.8848 84.8223L85.0463 78.2744C84.3707 77.7101 83.5184 77.4455 82.6464 77.5297C81.7742 77.6137 80.9866 78.0361 80.4287 78.719L78.9349 80.5476L77.1922 72.6173C76.4451 69.2174 73.6909 66.7632 70.3398 66.3936L69.8333 65.6254C68.9696 64.3155 67.5833 63.5032 66.0298 63.3969C65.6742 63.3726 65.3231 63.3877 64.98 63.4371L64.4192 60.9124C66.386 59.3635 67.6547 56.9489 67.6547 54.2386V50.7013H71.1528C72.0284 50.7013 72.7382 49.9835 72.7382 49.0981C72.7382 48.2127 72.0284 47.4949 71.1528 47.4949H69.3492V47.3846C69.3492 45.9629 68.9108 44.6433 68.165 43.5546L69.456 42.3334C70.0954 41.7285 70.1288 40.714 69.5308 40.0674C68.9324 39.4207 67.9293 39.387 67.2899 39.9919L65.7827 41.4177C64.8553 40.9226 63.8 40.6409 62.6803 40.6409H60.8767V37.1034C60.8767 36.218 60.1669 35.5002 59.2913 35.5002C58.4158 35.5002 57.7059 36.218 57.7059 37.1034V40.6409H55.9023C54.7826 40.6409 53.7274 40.9226 52.8 41.4177L51.2928 39.9919C50.6536 39.387 49.6501 39.4207 49.0519 40.0674C48.4536 40.714 48.4872 41.7285 49.1267 42.3334L50.4177 43.5546C49.6719 44.6433 49.2334 45.9629 49.2334 47.3846V47.4949H46.7832L42.2426 21.5713H42.3464C44.155 21.5713 45.6263 20.0836 45.6263 18.2546V14.8274C45.6263 12.9985 44.155 11.5107 42.3464 11.5107H41.8974C42.116 10.9449 42.2373 10.3301 42.2373 9.68691C42.2373 7.94348 41.5776 6.05898 40.2765 4.08533C39.3527 2.68413 38.423 1.73867 38.3839 1.69912C38.0861 1.39836 37.6829 1.22949 37.2623 1.22949C36.8416 1.22949 36.4385 1.39836 36.1413 1.69912C36.1022 1.73867 35.1725 2.68413 34.2487 4.08533C32.9476 6.05876 32.2879 7.94348 32.2879 9.68691C32.2879 10.3301 32.4092 10.9449 32.6278 11.5107H32.1786C30.3699 11.5107 28.8987 12.9985 28.8987 14.8274V18.2546C28.8987 20.0836 30.3699 21.5713 32.1786 21.5713H32.6278C32.4092 22.1372 32.2879 22.7519 32.2879 23.3951V26.8221C32.2879 29.5959 34.5195 31.8523 37.2623 31.8523C38.5433 31.8523 39.7123 31.3601 40.595 30.5529L44.9683 55.5205L41.6883 60.7031L38.1404 36.7842C38.0104 35.9087 37.2042 35.3052 36.3372 35.4365C35.4714 35.5679 34.8749 36.3843 35.0047 37.2598L39.0982 64.8464C38.3503 66.3323 38.3729 68.1026 39.1882 69.578L41.653 74.0379L41.0157 75.1398C40.1452 76.6447 40.1129 78.5329 40.9314 80.0674L43.9519 85.7308L41.3992 88.6563C39.8324 90.4519 39.3244 92.9788 40.0731 95.2508L42.7275 103.335L39.358 108.145C38.8517 108.867 39.0208 109.868 39.7353 110.38C40.0135 110.579 40.3336 110.675 40.6504 110.675C41.1472 110.675 41.6366 110.439 41.9454 109.998L70.2343 69.6127C72.1317 69.923 73.6675 71.3576 74.097 73.3128L76.3754 83.6808L74.1148 86.448L72.7164 77.9645C72.5725 77.0913 71.7557 76.5006 70.8919 76.6466C70.0282 76.7922 69.4448 77.6182 69.5887 78.4916L74.6722 109.335C74.8014 110.12 75.4731 110.675 76.2341 110.675C76.3208 110.675 76.4085 110.668 76.4967 110.653C77.3604 110.508 77.9439 109.682 77.7999 108.808L77.4224 106.517C77.5621 106.536 77.702 106.548 77.8424 106.548C78.7877 106.548 79.7263 106.137 80.374 105.345L84.926 99.7725C85.4879 99.9907 86.0855 100.107 86.6971 100.107C86.8564 100.107 87.0169 100.099 87.1775 100.084C88.5004 99.9565 89.6948 99.3159 90.5412 98.28L91.6203 96.959C92.4665 95.9231 92.8633 94.616 92.7373 93.2783C92.6633 92.4923 92.4096 91.7537 92.0088 91.1024L93.3243 89.4919C94.4764 88.0817 94.2792 85.9869 92.8848 84.8223ZM37.2623 5.32001C38.1288 6.51557 39.0661 8.18888 39.0661 9.68691C39.0661 10.6927 38.2569 11.5107 37.2625 11.5107C36.2681 11.5107 35.4589 10.6924 35.4589 9.68691C35.4587 8.18867 36.3962 6.51493 37.2623 5.32001ZM39.0661 26.8221C39.0661 27.8279 38.2569 28.6459 37.2625 28.6459C36.2681 28.6459 35.4589 27.8279 35.4589 26.8221V23.3951C35.4589 22.3896 36.2681 21.5713 37.2625 21.5713C38.2569 21.5713 39.0661 22.3896 39.0661 23.3951V26.8221ZM32.1788 18.3647C32.1186 18.3647 32.0697 18.3153 32.0697 18.2544V14.8274C32.0697 14.7665 32.1186 14.7171 32.1788 14.7171H42.346C42.4062 14.7171 42.4551 14.7665 42.4551 14.8274V18.2546C42.4551 18.3153 42.4062 18.3649 42.346 18.3649L32.1788 18.3647ZM64.4837 54.2386C64.4837 57.134 62.1542 59.4894 59.2911 59.4894C56.4279 59.4894 54.0986 57.1338 54.0986 54.2386V50.7013H64.4839V54.2386H64.4837ZM62.0711 64.9717C62.0354 65.0102 61.9988 65.0476 61.9641 65.0876L58.1968 69.4049L56.3657 66.6549L57.1449 62.4121C57.8302 62.5964 58.5494 62.6958 59.2911 62.6958C60.0553 62.6958 60.7949 62.5896 61.4987 62.3946L62.0711 64.9717ZM52.4039 47.3844C52.4039 45.4338 53.973 43.8471 55.9019 43.8471H62.6799C64.6088 43.8471 66.178 45.4338 66.178 47.3844V47.4947H52.4036L52.4039 47.3844ZM47.4295 50.7013H50.9275V54.2386C50.9275 56.9617 52.2081 59.3868 54.1909 60.9348L53.8377 62.8587L48.2579 54.4791C48.1708 54.3483 48.0643 54.2352 47.9463 54.1377L47.3436 50.6966C47.3724 50.6983 47.4005 50.7013 47.4295 50.7013ZM43.7219 78.5455C43.4251 77.9891 43.4367 77.3044 43.7526 76.7589L48.4957 68.5586C48.9377 67.7942 48.6834 66.8124 47.9275 66.3654C47.1718 65.9184 46.2007 66.1754 45.7584 66.9398L43.5103 70.8266L41.956 68.0139C41.6311 67.4259 41.6522 66.7083 42.0111 66.141L46.9764 58.2956L56.0285 71.8898L46.1871 83.1685L43.7219 78.5455ZM45.0069 100.08L43.0808 94.237C42.688 93.0452 42.9544 91.7197 43.7762 90.7779L64.3416 67.2091C64.7154 66.7812 65.2527 66.5578 65.8158 66.5963C66.3792 66.6348 66.8817 66.9293 67.195 67.4041L67.5347 67.9195L45.0069 100.08ZM89.176 94.9163L88.0969 96.2375C87.7899 96.6131 87.357 96.8455 86.8774 96.8916C86.3977 96.9382 85.9291 96.7925 85.5577 96.4821C85.1863 96.1719 84.9565 95.7339 84.9108 95.2489C84.8652 94.7639 85.0089 94.29 85.3158 93.9144L86.395 92.5934C86.7512 92.1573 87.2672 91.9318 87.787 91.9318C88.1916 91.9318 88.5985 92.0684 88.9342 92.3488C89.3056 92.659 89.5354 93.097 89.581 93.582C89.6267 94.067 89.483 94.5407 89.176 94.9163ZM90.88 87.4497L89.5635 89.0612C87.624 88.312 85.344 88.8453 83.9503 90.5513L82.8711 91.8724C81.4774 93.5782 81.3899 95.9432 82.4837 97.7277L77.9297 103.302C77.9225 103.311 77.9007 103.338 77.8557 103.342C77.8109 103.346 77.7845 103.324 77.7758 103.317L76.7544 102.464L74.8052 90.6372L82.8732 80.7611C82.8804 80.7525 82.902 80.726 82.947 80.7215C82.9918 80.7175 83.018 80.7391 83.0269 80.7463L90.8654 87.2942C90.9117 87.3329 90.9183 87.4026 90.88 87.4497Z" fill="#6D28D9"/>
</svg>
