<svg width="310" height="214" viewBox="0 0 310 214" fill="none" xmlns="http://www.w3.org/2000/svg">
<path d="M298.789 149.718C299.982 148.573 301.428 148 303.118 148C304.808 148 306.254 148.573 307.447 149.718C308.64 150.864 309.237 152.252 309.237 153.875C309.237 155.498 308.64 156.886 307.447 158.032C306.254 159.177 304.808 159.75 303.118 159.75C301.428 159.75 299.982 159.177 298.789 158.032C297.596 156.886 297 155.498 297 153.875C297 152.252 297.596 150.864 298.789 149.718ZM303.118 159.264C304.646 159.264 305.965 158.744 307.05 157.693C308.134 156.643 308.676 155.368 308.676 153.875C308.676 152.382 308.134 151.107 307.05 150.057C305.965 149.007 304.646 148.486 303.118 148.486C301.591 148.486 300.253 149.007 299.169 150.057C298.084 151.107 297.533 152.382 297.533 153.875C297.533 155.368 298.075 156.643 299.169 157.693C300.253 158.744 301.573 159.264 303.118 159.264ZM305.604 152.816C305.604 153.658 305.251 154.248 304.537 154.587L305.839 156.878H304.42L303.317 154.847H302.404V156.878H301.103V150.872H303.218C303.95 150.872 304.528 151.063 304.962 151.437C305.396 151.81 305.604 152.27 305.604 152.825V152.816ZM302.404 152.035V153.71H303.218C303.552 153.71 303.823 153.632 304.013 153.485C304.203 153.328 304.302 153.129 304.302 152.886C304.302 152.322 303.941 152.044 303.218 152.044H302.404V152.035Z" fill="#6D28D9"/>
<path d="M92.9295 194.83C89.0072 198.57 84.2083 200.445 78.5508 200.445C72.8934 200.445 68.1125 198.57 64.2174 194.83C60.3222 191.09 58.3701 186.499 58.3701 181.067C58.3701 175.634 60.3222 171.043 64.2174 167.303C68.1216 163.563 72.8934 161.688 78.5508 161.688C84.2083 161.688 88.9982 163.563 92.9295 167.303C96.8517 171.043 98.8129 175.634 98.8129 181.067C98.8129 186.499 96.8517 191.09 92.9295 194.83ZM71.1762 188.33C73.1374 190.239 75.5956 191.194 78.5508 191.194C81.5061 191.194 83.9824 190.239 85.9706 188.33C87.9588 186.421 88.953 184 88.953 181.058C88.953 178.116 87.9588 175.695 85.9706 173.786C83.9824 171.876 81.5061 170.922 78.5508 170.922C75.5956 170.922 73.1374 171.876 71.1762 173.786C69.2151 175.695 68.23 178.116 68.23 181.058C68.23 184 69.2061 186.421 71.1762 188.33Z" fill="#6D28D9"/>
<path d="M134.819 194.83C130.896 198.57 126.106 200.445 120.44 200.445C114.773 200.445 110.002 198.57 106.107 194.83C102.211 191.09 100.259 186.499 100.259 181.067C100.259 175.634 102.211 171.043 106.107 167.303C110.002 163.563 114.783 161.688 120.44 161.688C126.097 161.688 130.887 163.563 134.819 167.303C138.741 171.043 140.702 175.634 140.702 181.067C140.702 186.499 138.741 191.09 134.819 194.83ZM113.065 188.33C115.027 190.239 117.485 191.194 120.44 191.194C123.395 191.194 125.872 190.239 127.86 188.33C129.848 186.421 130.842 184 130.842 181.058C130.842 178.116 129.848 175.695 127.86 173.786C125.872 171.876 123.395 170.922 120.44 170.922C117.485 170.922 115.027 171.876 113.065 173.786C111.104 175.695 110.119 178.116 110.119 181.058C110.119 184 111.104 186.421 113.065 188.33Z" fill="#6D28D9"/>
<path d="M185.889 199.421V147.604H196.327V199.421H185.889Z" fill="#6D28D9"/>
<path d="M173.318 162.712V164.344C170.254 162.582 166.793 161.688 162.916 161.688C157.259 161.688 152.478 163.563 148.583 167.303C144.687 171.043 142.735 175.634 142.735 181.067C142.735 186.499 144.687 191.09 148.583 194.83C152.478 198.57 157.259 200.445 162.916 200.445C166.793 200.445 170.254 199.542 173.318 197.789V214H183.178V162.712H173.318ZM170.336 188.339C168.348 190.248 165.871 191.203 162.916 191.203C159.961 191.203 157.503 190.248 155.541 188.339C153.58 186.43 152.595 184.008 152.595 181.067C152.595 178.125 153.58 175.703 155.541 173.794C157.503 171.885 159.961 170.93 162.916 170.93C165.871 170.93 168.348 171.885 170.336 173.794C172.324 175.703 173.318 178.125 173.318 181.067C173.318 184.008 172.324 186.43 170.336 188.339Z" fill="#6D28D9"/>
<path d="M228.889 162.504V164.352C225.826 162.591 222.364 161.697 218.487 161.697C212.83 161.697 208.049 163.571 204.154 167.312C200.259 171.052 198.307 175.643 198.307 181.075C198.307 186.508 200.259 191.098 204.154 194.839C208.049 198.579 212.83 200.453 218.487 200.453C222.364 200.453 225.826 199.551 228.889 197.798V199.646H238.93V162.504H228.889ZM225.907 188.347C223.919 190.257 221.443 191.211 218.487 191.211C215.532 191.211 213.074 190.257 211.113 188.347C209.152 186.438 208.167 184.017 208.167 181.075C208.167 178.133 209.152 175.712 211.113 173.803C213.074 171.894 215.532 170.939 218.487 170.939C221.443 170.939 223.919 171.894 225.907 173.803C227.895 175.712 228.889 178.133 228.889 181.075C228.889 184.017 227.895 186.438 225.907 188.347Z" fill="#6D28D9"/>
<path d="M44.859 185.162C44.859 188.235 42.2562 190.743 39.0569 190.743C35.8576 190.743 33.2548 188.243 33.2548 185.162V162.712H22.6358V185.171C22.6358 188.243 20.033 190.751 16.8247 190.751C13.6164 190.751 11.0226 188.252 11.0226 185.171V162.712H0.394531V185.171C0.394531 193.867 7.76008 200.948 16.8247 200.948C21.1175 200.948 25.0126 199.351 27.9408 196.756C30.8689 199.351 34.7641 200.948 39.0569 200.948C48.1124 200.948 55.487 193.875 55.487 185.171V162.712H44.868V185.171L44.859 185.162Z" fill="#6D28D9"/>
<path d="M286.702 162.712V185.171C286.702 188.243 284.099 190.751 280.9 190.751C277.701 190.751 275.098 188.252 275.098 185.171V162.712H264.479V185.171C264.479 188.243 261.876 190.751 258.668 190.751C255.459 190.751 252.866 188.252 252.866 185.171V162.712H242.247V185.171C242.247 193.867 249.612 200.948 258.677 200.948C262.97 200.948 266.865 199.351 269.793 196.756C272.721 199.351 276.616 200.948 280.909 200.948C289.965 200.948 297.339 193.875 297.339 185.171V162.712H286.72H286.702Z" fill="#6D28D9"/>
<g filter="url(#filter0_d_181369_160235)">
<path d="M154.939 137.947H154.727C142.588 137.947 132.722 128.046 132.722 115.884V67.9754C132.722 65.0465 130.342 62.6608 127.421 62.6608C124.5 62.6608 122.12 65.0465 122.12 67.9754V97.4867H105.406V67.9754C105.406 55.8042 115.282 45.9122 127.411 45.9122C139.541 45.9122 149.426 55.8139 149.426 67.9754V115.884C149.426 118.813 151.805 121.199 154.727 121.199H154.939C157.86 121.199 160.24 118.813 160.24 115.884V67.9754C160.24 55.8042 170.116 45.9122 182.245 45.9122H182.671C194.81 45.9122 204.676 55.8139 204.676 67.9754V114.391H187.961V67.9754C187.961 65.0465 185.582 62.6608 182.661 62.6608H182.235C179.314 62.6608 176.935 65.0465 176.935 67.9754V115.884C176.935 128.055 167.059 137.947 154.93 137.947H154.939Z" fill="url(#paint0_linear_181369_160235)"/>
<path d="M182.09 38.5319C189.948 38.5319 196.318 32.1448 196.318 24.2659C196.318 16.3871 189.948 10 182.09 10C174.232 10 167.862 16.3871 167.862 24.2659C167.862 32.1448 174.232 38.5319 182.09 38.5319Z" fill="#6D28D9"/>
<path d="M126.986 38.5319C132.205 38.5319 136.436 34.2898 136.436 29.0568C136.436 23.8239 132.205 19.5818 126.986 19.5818C121.767 19.5818 117.536 23.8239 117.536 29.0568C117.536 34.2898 121.767 38.5319 126.986 38.5319Z" fill="#FF7244"/>
</g>
<defs>
<filter id="filter0_d_181369_160235" x="95.4062" y="0" width="119.27" height="147.947" filterUnits="userSpaceOnUse" color-interpolation-filters="sRGB">
<feFlood flood-opacity="0" result="BackgroundImageFix"/>
<feColorMatrix in="SourceAlpha" type="matrix" values="0 0 0 0 0 0 0 0 0 0 0 0 0 0 0 0 0 0 127 0" result="hardAlpha"/>
<feOffset/>
<feGaussianBlur stdDeviation="5"/>
<feComposite in2="hardAlpha" operator="out"/>
<feColorMatrix type="matrix" values="0 0 0 0 0.403922 0 0 0 0 0.227451 0 0 0 0 0.717647 0 0 0 0.35 0"/>
<feBlend mode="normal" in2="BackgroundImageFix" result="effect1_dropShadow_181369_160235"/>
<feBlend mode="normal" in="SourceGraphic" in2="effect1_dropShadow_181369_160235" result="shape"/>
</filter>
<linearGradient id="paint0_linear_181369_160235" x1="105.193" y1="95.0816" x2="206.363" y2="86.2542" gradientUnits="userSpaceOnUse">
<stop stop-color="#FDD62C"/>
<stop offset="0.27" stop-color="#FF7244"/>
<stop offset="0.63" stop-color="#CC38FF"/>
<stop offset="1" stop-color="#7413FF"/>
</linearGradient>
</defs>
</svg>
