<svg width="124" height="123" viewBox="0 0 124 123" fill="none" xmlns="http://www.w3.org/2000/svg">
<path d="M115.277 107.059H109.805V98.0171C109.805 97.0183 108.989 96.2087 107.981 96.2087H101.16L116.635 79.1152C117.093 78.6092 117.226 77.8914 116.978 77.2573C116.733 76.6224 116.148 76.179 115.466 76.1084C114.957 76.0565 107.87 75.4055 98.7961 78.1463C96.5334 76.2049 93.8022 74.7144 90.6283 73.7014L94.961 66.3804C95.2693 65.8604 95.296 65.2218 95.0305 64.6789C94.765 64.1359 94.2449 63.7595 93.6428 63.6748C93.156 63.6061 81.9586 62.1449 69.7556 67.3936C55.7566 45.57 35.8661 43.7881 35.6066 43.7697C35.0384 43.7228 34.4683 43.9596 34.0889 44.3949C33.7131 44.8293 33.5651 45.4166 33.6951 45.9762L36.2431 57.0095C27.8968 54.2884 23.5853 54.6061 23.3865 54.622C22.8895 54.6643 22.4335 54.9064 22.1216 55.2904C21.81 55.6754 21.6691 56.169 21.7352 56.6581L22.7762 64.5168C15.5697 63.0098 9.55804 63.636 9.27823 63.6684C8.72074 63.7292 8.22374 64.0418 7.9279 64.5144C7.63398 64.9868 7.57348 65.5671 7.76758 66.0888L18.9246 96.2087H16.7761C15.7678 96.2087 14.9521 97.0185 14.9521 98.0171V107.059H9.47981C8.47149 107.059 7.65578 107.869 7.65578 108.868C7.65578 109.866 8.47171 110.676 9.47981 110.676H115.277C116.286 110.676 117.101 109.866 117.101 108.868C117.101 107.869 116.285 107.059 115.277 107.059ZM111.214 79.6874L96.2579 96.2087H80.7758C80.6014 95.3186 80.4186 94.4489 80.226 93.597C91.3677 82.1689 104.745 80.0045 111.214 79.6874ZM94.7103 79.573C91.0385 81.0397 87.173 83.0948 83.3711 85.9638L88.7303 76.9082C90.9799 77.5487 92.9865 78.4314 94.7103 79.573ZM90.3207 67.0762L78.5132 87.0273C76.6235 80.6415 74.279 75.1834 71.6546 70.539C79.2541 67.3803 86.4871 66.9721 90.3207 67.0762ZM76.4546 93.4414C76.6684 94.3361 76.8685 95.265 77.0609 96.2087H49.0378L37.8583 47.8033C45.4486 49.4836 68.0716 57.4556 76.4546 93.4414ZM37.2044 61.1721L45.2957 96.2087H30.6526L26.7391 66.6684C26.7387 66.6665 26.7385 66.6644 26.7383 66.6625L25.6308 58.3031C27.7562 58.5017 31.636 59.1618 37.2044 61.1721ZM12.043 67.1414C14.565 67.0933 18.7632 67.2478 23.2837 68.3467L26.9742 96.2087H22.8104L12.043 67.1414ZM106.157 107.059H18.6001V99.8257H21.5319C21.5338 99.8257 21.5357 99.8265 21.5377 99.8265C21.5394 99.8265 21.5409 99.8257 21.5426 99.8257H106.157V107.059Z" fill="#6D28D9"/>
<path d="M75.1471 45.5727C80.1758 45.5727 84.2676 41.5161 84.2676 36.5305C84.2676 31.545 80.1758 27.4883 75.1471 27.4883C70.1183 27.4883 66.0265 31.545 66.0265 36.5305C66.0265 41.5161 70.1183 45.5727 75.1471 45.5727ZM75.1471 31.1052C78.1647 31.1052 80.6193 33.5388 80.6193 36.5305C80.6193 39.5223 78.1647 41.9558 75.1471 41.9558C72.1294 41.9558 69.6748 39.5223 69.6748 36.5305C69.6748 33.5388 72.1296 31.1052 75.1471 31.1052Z" fill="#6D28D9"/>
<path d="M75.1471 25.6799C76.1554 25.6799 76.9711 24.8702 76.9711 23.8716V20.2546C76.9711 19.2558 76.1552 18.4463 75.1471 18.4463C74.1387 18.4463 73.323 19.2561 73.323 20.2546V23.8716C73.323 24.8704 74.139 25.6799 75.1471 25.6799Z" fill="#6D28D9"/>
<path d="M73.323 49.1897V52.8066C73.323 53.8054 74.139 54.615 75.1471 54.615C76.1554 54.615 76.9711 53.8052 76.9711 52.8066V49.1897C76.9711 48.1909 76.1552 47.3813 75.1471 47.3813C74.139 47.3811 73.323 48.1909 73.323 49.1897Z" fill="#6D28D9"/>
<path d="M86.0916 36.5305C86.0916 37.5293 86.9076 38.3389 87.9157 38.3389H91.5639C92.5722 38.3389 93.3879 37.5291 93.3879 36.5305C93.3879 35.5317 92.572 34.7222 91.5639 34.7222H87.9157C86.9076 34.7222 86.0916 35.5319 86.0916 36.5305Z" fill="#6D28D9"/>
<path d="M58.7302 38.3391H62.3785C63.3868 38.3391 64.2025 37.5293 64.2025 36.5307C64.2025 35.5319 63.3866 34.7224 62.3785 34.7224H58.7302C57.7219 34.7224 56.9062 35.5321 56.9062 36.5307C56.9062 37.5293 57.7221 38.3391 58.7302 38.3391Z" fill="#6D28D9"/>
<path d="M84.1751 29.3878C84.6417 29.3878 85.1085 29.2113 85.4647 28.8588L88.0458 26.3015C88.7583 25.5952 88.7583 24.4497 88.0458 23.7434C87.3334 23.037 86.1791 23.0379 85.4664 23.7425L82.8852 26.2998C82.1728 27.0062 82.1728 28.1516 82.8852 28.858C83.2416 29.2113 83.7082 29.3878 84.1751 29.3878Z" fill="#6D28D9"/>
<path d="M64.8277 44.2033L62.2483 46.7606C61.5358 47.4669 61.5358 48.6113 62.2483 49.3179C62.6046 49.6712 63.0713 49.8477 63.5379 49.8477C64.0045 49.8477 64.4714 49.6712 64.8275 49.3179L67.407 46.7606C68.1194 46.0542 68.1194 44.9098 67.407 44.2033C66.6947 43.4967 65.5404 43.4967 64.8277 44.2033Z" fill="#6D28D9"/>
<path d="M82.8852 44.2033C82.1728 44.9096 82.1728 46.0551 82.8852 46.7614L85.4664 49.3187C85.8227 49.671 86.2894 49.8477 86.756 49.8477C87.2226 49.8477 87.6895 49.6712 88.0456 49.3179C88.7581 48.6115 88.7581 47.4663 88.0456 46.7597L85.4647 44.2022C84.7522 43.4976 83.5979 43.4967 82.8852 44.2033Z" fill="#6D28D9"/>
<path d="M64.8277 28.858C65.1841 29.2113 65.6507 29.3878 66.1174 29.3878C66.584 29.3878 67.0508 29.2113 67.407 28.858C68.1194 28.1516 68.1194 27.0072 67.407 26.3007L64.8275 23.7434C64.1151 23.037 62.9607 23.037 62.2481 23.7434C61.5356 24.4497 61.5356 25.5941 62.2481 26.3007L64.8277 28.858Z" fill="#6D28D9"/>
</svg>
