<svg width="124" height="123" viewBox="0 0 124 123" fill="none" xmlns="http://www.w3.org/2000/svg">
<path d="M60.7195 55.4571C57.6706 55.4571 54.6902 56.3679 52.1551 58.0744C49.62 59.7809 47.6442 62.2064 46.4774 65.0442C45.3107 67.882 45.0054 71.0046 45.6002 74.0172C46.195 77.0298 47.6632 79.797 49.8191 81.969C51.975 84.1409 54.7218 85.6201 57.7121 86.2193C60.7024 86.8185 63.802 86.511 66.6188 85.3355C69.4356 84.1601 71.8432 82.1695 73.5371 79.6156C75.231 77.0616 76.1351 74.059 76.1351 70.9874C76.1305 66.8699 74.5049 62.9224 71.6149 60.0109C68.7249 57.0994 64.8066 55.4617 60.7195 55.4571ZM60.7195 83.0665C58.3482 83.0665 56.03 82.3581 54.0583 81.0308C52.0866 79.7036 50.5498 77.8171 49.6423 75.6099C48.7349 73.4027 48.4974 70.974 48.96 68.6309C49.4227 66.2878 50.5646 64.1355 52.2414 62.4462C53.9182 60.7569 56.0546 59.6065 58.3804 59.1404C60.7062 58.6743 63.117 58.9135 65.3078 59.8278C67.4987 60.742 69.3713 62.2902 70.6887 64.2766C72.0062 66.263 72.7094 68.5984 72.7094 70.9874C72.7058 74.1899 71.4415 77.2602 69.1937 79.5247C66.9459 81.7892 63.8983 83.0629 60.7195 83.0665Z" fill="#6D28D9"/>
<path d="M65.858 69.2618H62.4324V62.3595C62.4324 61.9018 62.2519 61.4629 61.9307 61.1393C61.6095 60.8157 61.1738 60.6339 60.7195 60.6339C60.2652 60.6339 59.8296 60.8157 59.5084 61.1393C59.1871 61.4629 59.0067 61.9018 59.0067 62.3595V70.9874C59.0067 71.4451 59.1871 71.884 59.5084 72.2076C59.8296 72.5312 60.2652 72.713 60.7195 72.713H65.858C66.3123 72.713 66.748 72.5312 67.0692 72.2076C67.3904 71.884 67.5709 71.4451 67.5709 70.9874C67.5709 70.5298 67.3904 70.0908 67.0692 69.7672C66.748 69.4436 66.3123 69.2618 65.858 69.2618Z" fill="#6D28D9"/>
<path d="M60.7195 100.322C60.2652 100.322 59.8296 100.504 59.5084 100.828C59.1871 101.151 59.0067 101.59 59.0067 102.048V108.95C59.0067 109.408 59.1871 109.847 59.5084 110.171C59.8296 110.494 60.2652 110.676 60.7195 110.676C61.1738 110.676 61.6095 110.494 61.9307 110.171C62.2519 109.847 62.4324 109.408 62.4324 108.95V102.048C62.4324 101.59 62.2519 101.151 61.9307 100.828C61.6095 100.504 61.1738 100.322 60.7195 100.322Z" fill="#6D28D9"/>
<path d="M53.8682 100.322C53.4139 100.322 52.9782 100.504 52.657 100.828C52.3358 101.151 52.1553 101.59 52.1553 102.048V108.95C52.1553 109.408 52.3358 109.847 52.657 110.171C52.9782 110.494 53.4139 110.676 53.8682 110.676C54.3224 110.676 54.7581 110.494 55.0793 110.171C55.4006 109.847 55.581 109.408 55.581 108.95V102.048C55.581 101.59 55.4006 101.151 55.0793 100.828C54.7581 100.504 54.3224 100.322 53.8682 100.322Z" fill="#6D28D9"/>
<path d="M67.5709 100.322C67.1166 100.322 66.6809 100.504 66.3597 100.828C66.0385 101.151 65.858 101.59 65.858 102.048V108.95C65.858 109.408 66.0385 109.847 66.3597 110.171C66.6809 110.494 67.1166 110.676 67.5709 110.676C68.0251 110.676 68.4608 110.494 68.782 110.171C69.1033 109.847 69.2837 109.408 69.2837 108.95V102.048C69.2837 101.59 69.1033 101.151 68.782 100.828C68.4608 100.504 68.0251 100.322 67.5709 100.322Z" fill="#6D28D9"/>
<path d="M110.122 23.7516C109.691 22.0659 108.764 20.5511 107.462 19.4061C106.161 18.2612 104.546 17.5398 102.83 17.3367C102.062 15.1166 100.708 13.149 98.9147 11.6452C97.1209 10.1413 94.9545 9.15802 92.6479 8.80081C90.3413 8.44361 87.9818 8.72598 85.8225 9.61762C83.6632 10.5093 81.7856 11.9765 80.3915 13.8618C80.1131 13.8381 79.8369 13.8273 79.5607 13.8273C76.8351 13.8273 74.2211 14.9181 72.2938 16.8598C70.3665 18.8015 69.2837 21.4349 69.2837 24.1809C69.2837 26.9268 70.3665 29.5602 72.2938 31.5019C74.2211 33.4436 76.8351 34.5344 79.5607 34.5344H101.828C103.134 34.5335 104.423 34.2317 105.596 33.6519C106.77 33.0721 107.796 32.2298 108.596 31.1893C109.396 30.1488 109.95 28.9377 110.214 27.6486C110.479 26.3595 110.447 25.0265 110.122 23.7516ZM101.828 31.0832H79.5607C78.6051 31.0831 77.66 30.8817 76.7863 30.4917C75.9125 30.1018 75.1294 29.532 74.4872 28.819C73.8451 28.106 73.3581 27.2655 73.0575 26.3516C72.757 25.4377 72.6495 24.4705 72.7421 23.5123C72.8347 22.554 73.1252 21.6259 73.595 20.7875C74.0648 19.9491 74.7035 19.219 75.4701 18.6442C76.2367 18.0693 77.1142 17.6623 78.0461 17.4494C78.9781 17.2365 79.944 17.2224 80.8818 17.4079C81.2239 17.4756 81.5783 17.4365 81.8978 17.2958C82.2173 17.1551 82.4865 16.9196 82.6695 16.6206C83.6461 15.0203 85.0721 13.748 86.7669 12.9648C88.4618 12.1815 90.3492 11.9226 92.1902 12.2208C94.0312 12.519 95.7429 13.3608 97.1087 14.6398C98.4744 15.9188 99.4327 17.5773 99.8622 19.4053C99.9554 19.796 100.18 20.1421 100.498 20.3844C100.817 20.6267 101.209 20.7503 101.607 20.734C101.68 20.7318 101.755 20.7297 101.828 20.7297C102.967 20.7285 104.075 21.1094 104.976 21.8124C105.877 22.5154 106.52 23.5004 106.803 24.6123C106.913 25.0348 106.967 25.4698 106.966 25.9064C106.964 27.2788 106.422 28.5945 105.459 29.565C104.496 30.5354 103.19 31.0814 101.828 31.0832Z" fill="#6D28D9"/>
<path d="M96.9803 73.6103C96.6094 72.1596 95.8192 70.8526 94.71 69.8549C93.6008 68.8572 92.2225 68.2139 90.7499 68.0065C90.0311 66.0001 88.7563 64.2435 87.0767 62.9448C85.3972 61.6462 83.3832 60.8599 81.2736 60.6792V52.0059C81.2736 51.5483 81.0931 51.1094 80.7719 50.7858C80.4507 50.4621 80.015 50.2803 79.5607 50.2803V41.6524C79.5607 41.1947 79.3803 40.7558 79.0591 40.4322C78.7378 40.1086 78.3022 39.9268 77.8479 39.9268C77.3936 39.9268 76.958 40.1086 76.6367 40.4322C76.3155 40.7558 76.1351 41.1947 76.1351 41.6524V43.378H75.011L67.5709 34.3834V27.8477C67.5709 27.39 67.3904 26.9511 67.0692 26.6275C66.748 26.3039 66.3123 26.1221 65.858 26.1221H65.6953L64.1366 10.4192C64.0942 9.99361 63.8963 9.59903 63.5814 9.31207C63.2665 9.02511 62.857 8.86621 62.4324 8.86622V5.41504C62.4324 4.95739 62.2519 4.51848 61.9307 4.19487C61.6095 3.87126 61.1738 3.68945 60.7195 3.68945C60.2652 3.68945 59.8296 3.87126 59.5084 4.19487C59.1871 4.51848 59.0067 4.95739 59.0067 5.41504V8.86622C58.5821 8.86621 58.1726 9.02511 57.8577 9.31207C57.5428 9.59903 57.3449 9.99361 57.3024 10.4192L55.7437 26.1221H55.581C55.1267 26.1221 54.6911 26.3039 54.3698 26.6275C54.0486 26.9511 53.8682 27.39 53.8682 27.8477V34.3834L46.428 43.378H45.304V41.6524C45.304 41.1947 45.1235 40.7558 44.8023 40.4322C44.4811 40.1086 44.0454 39.9268 43.5911 39.9268C43.1369 39.9268 42.7012 40.1086 42.38 40.4322C42.0588 40.7558 41.8783 41.1947 41.8783 41.6524V50.2803C41.424 50.2803 40.9884 50.4621 40.6671 50.7858C40.3459 51.1094 40.1655 51.5483 40.1655 52.0059V78.6296C37.5791 77.7086 34.768 77.6459 32.1436 78.4504C29.5192 79.255 27.2194 80.8847 25.5807 83.101C25.3023 83.0773 25.0261 83.0665 24.7499 83.0665C22.0243 83.0665 19.4103 84.1573 17.483 86.099C15.5557 88.0407 14.4729 90.6741 14.4729 93.4201C14.4729 96.166 15.5557 98.7994 17.483 100.741C19.4103 102.683 22.0243 103.774 24.7499 103.774H43.5911V108.95C43.5911 109.408 43.7716 109.847 44.0928 110.171C44.414 110.494 44.8497 110.676 45.304 110.676C45.7583 110.676 46.1939 110.494 46.5151 110.171C46.8364 109.847 47.0168 109.408 47.0168 108.95V96.8712H74.4222V108.95C74.4222 109.408 74.6027 109.847 74.9239 110.171C75.2451 110.494 75.6808 110.676 76.1351 110.676C76.5893 110.676 77.025 110.494 77.3462 110.171C77.6674 109.847 77.8479 109.408 77.8479 108.95V91.6945H79.5607C80.015 91.6945 80.4507 91.5127 80.7719 91.1891C81.0931 90.8654 81.2736 90.4265 81.2736 89.9689V83.0665H89.705C90.8508 83.0652 91.9811 82.8002 93.0096 82.2916C94.0382 81.783 94.9378 81.0444 95.6397 80.1321C96.3416 79.2197 96.8272 78.1579 97.0596 77.0276C97.2919 75.8973 97.2648 74.7284 96.9803 73.6103ZM60.5568 12.3174H60.8822L62.2525 26.1221H59.1865L60.5568 12.3174ZM57.2938 29.5733H64.1452V33.0245H57.2938V29.5733ZM56.598 36.4756H64.841L70.5512 43.378H50.8878L56.598 36.4756ZM45.304 46.8292H76.1351V50.2803H45.304V46.8292ZM43.5911 100.322H24.7499C23.7943 100.322 22.8492 100.121 21.9755 99.7309C21.1017 99.341 20.3186 98.7712 19.6764 98.0582C19.0343 97.3452 18.5473 96.5047 18.2467 95.5908C17.9462 94.6769 17.8387 93.7097 17.9313 92.7515C18.0239 91.7933 18.3144 90.8651 18.7842 90.0267C19.254 89.1883 19.8927 88.4583 20.6593 87.8834C21.4259 87.3085 22.3033 86.9015 23.2353 86.6886C24.1673 86.4757 25.1332 86.4616 26.071 86.6471C26.4131 86.7148 26.7675 86.6757 27.087 86.535C27.4064 86.3943 27.6757 86.1588 27.8587 85.8598C29.0992 83.8262 31.0551 82.3386 33.3362 81.6937C35.6173 81.0488 38.0559 81.2941 40.1655 82.3806V89.9689C40.1655 90.4265 40.3459 90.8654 40.6671 91.1891C40.9884 91.5127 41.424 91.6945 41.8783 91.6945H43.5911V100.322ZM74.4222 93.4201H47.0168V91.6945H74.4222V93.4201ZM77.8479 88.2433H43.5911V53.7315H77.8479V88.2433ZM89.705 79.6153H81.2736V64.1476C82.829 64.344 84.2873 65.0161 85.4518 66.0732C86.6164 67.1304 87.4313 68.5218 87.7866 70.0599C87.8777 70.451 88.1015 70.7977 88.4193 71.0403C88.7371 71.2829 89.129 71.4061 89.5273 71.3886C89.5873 71.3864 89.6472 71.3865 89.705 71.3865C90.7882 71.3865 91.827 71.8199 92.5929 72.5915C93.3588 73.3632 93.7891 74.4097 93.7891 75.5009C93.7891 76.5921 93.3588 77.6386 92.5929 78.4103C91.827 79.1819 90.7882 79.6153 89.705 79.6153Z" fill="#6D28D9"/>
</svg>
