<svg width="113" height="39" viewBox="0 0 113 39" fill="none" xmlns="http://www.w3.org/2000/svg">
<rect width="113" height="39" rx="19.5" fill="#D97706"/>
<path d="M36.132 13.49L31.434 26H29.058L24.342 13.49H26.538L30.246 23.894L33.972 13.49H36.132ZM38.172 14.768C37.8 14.768 37.488 14.642 37.236 14.39C36.984 14.138 36.858 13.826 36.858 13.454C36.858 13.082 36.984 12.77 37.236 12.518C37.488 12.266 37.8 12.14 38.172 12.14C38.532 12.14 38.838 12.266 39.09 12.518C39.342 12.77 39.468 13.082 39.468 13.454C39.468 13.826 39.342 14.138 39.09 14.39C38.838 14.642 38.532 14.768 38.172 14.768ZM39.18 16.082V26H37.128V16.082H39.18ZM50.2441 20.798C50.2441 21.17 50.2201 21.506 50.1721 21.806H42.5941C42.6541 22.598 42.9481 23.234 43.4761 23.714C44.0041 24.194 44.6521 24.434 45.4201 24.434C46.5241 24.434 47.3041 23.972 47.7601 23.048H49.9741C49.6741 23.96 49.1281 24.71 48.3361 25.298C47.5561 25.874 46.5841 26.162 45.4201 26.162C44.4721 26.162 43.6201 25.952 42.8641 25.532C42.1201 25.1 41.5321 24.5 41.1001 23.732C40.6801 22.952 40.4701 22.052 40.4701 21.032C40.4701 20.012 40.6741 19.118 41.0821 18.35C41.5021 17.57 42.0841 16.97 42.8281 16.55C43.5841 16.13 44.4481 15.92 45.4201 15.92C46.3561 15.92 47.1901 16.124 47.9221 16.532C48.6541 16.94 49.2241 17.516 49.6321 18.26C50.0401 18.992 50.2441 19.838 50.2441 20.798ZM48.1021 20.15C48.0901 19.394 47.8201 18.788 47.2921 18.332C46.7641 17.876 46.1101 17.648 45.3301 17.648C44.6221 17.648 44.0161 17.876 43.5121 18.332C43.0081 18.776 42.7081 19.382 42.6121 20.15H48.1021ZM64.8635 16.082L61.7855 26H59.6255L57.6275 18.674L55.6295 26H53.4695L50.3735 16.082H52.4615L54.5315 24.056L56.6375 16.082H58.7795L60.7955 24.02L62.8475 16.082H64.8635ZM77.1748 23.444H71.9368L71.0368 26H68.8948L73.3768 13.472H75.7528L80.2348 26H78.0748L77.1748 23.444ZM76.5988 21.77L74.5648 15.956L72.5128 21.77H76.5988ZM83.5156 12.68V26H81.4636V12.68H83.5156ZM87.5417 12.68V26H85.4897V12.68H87.5417Z" fill="white"/>
</svg>
