<svg width="15" height="14" viewBox="0 0 15 14" fill="none" xmlns="http://www.w3.org/2000/svg">
<g clip-path="url(#clip0_180124_143358)">
<path d="M14.3202 0.15323C14.5963 0.344636 14.7413 0.675495 14.6893 1.00635L12.9393 12.3814C12.8983 12.6466 12.737 12.879 12.5018 13.0103C12.2666 13.1415 11.985 13.1579 11.7362 13.054L8.46586 11.695L6.59281 13.7212C6.34945 13.9864 5.96664 14.0739 5.63031 13.9427C5.29399 13.8114 5.07524 13.486 5.07524 13.1251V10.8392C5.07524 10.7298 5.11625 10.6259 5.19008 10.5466L9.77289 5.54542C9.93149 5.37315 9.92602 5.10792 9.76195 4.94385C9.59789 4.77979 9.33266 4.76886 9.16039 4.92471L3.59867 9.86573L1.18422 8.65714C0.894377 8.51221 0.708439 8.22237 0.700236 7.89971C0.692033 7.57706 0.861564 7.27628 1.14047 7.11495L13.3905 0.114948C13.683 -0.0518486 14.044 -0.0354423 14.3202 0.15323Z" fill="#D4D4D8"/>
</g>
<defs>
<clipPath id="clip0_180124_143358">
<rect width="14" height="14" fill="white" transform="translate(0.699951)"/>
</clipPath>
</defs>
</svg>
