<svg width="18" height="16" viewBox="0 0 18 16" fill="none" xmlns="http://www.w3.org/2000/svg">
<g clip-path="url(#clip0_180124_143330)">
<path d="M0 3H17.6C17.6 1.89688 16.7231 1 15.6444 1H1.95556C0.876944 1 0 1.89688 0 3ZM0 4V13C0 14.1031 0.876944 15 1.95556 15H15.6444C16.7231 15 17.6 14.1031 17.6 13V4H0ZM1.95556 12.6656C1.95556 11.7437 2.68583 11 3.58417 11H7.17139C8.07278 11 8.8 11.7469 8.8 12.6656C8.8 12.85 8.65333 13 8.47305 13H2.2825C2.10222 13 1.95556 12.85 1.95556 12.6656ZM5.37778 6C5.89642 6 6.39383 6.21071 6.76056 6.58579C7.1273 6.96086 7.33333 7.46957 7.33333 8C7.33333 8.53043 7.1273 9.03914 6.76056 9.41421C6.39383 9.78929 5.89642 10 5.37778 10C4.85913 10 4.36173 9.78929 3.99499 9.41421C3.62825 9.03914 3.42222 8.53043 3.42222 8C3.42222 7.46957 3.62825 6.96086 3.99499 6.58579C4.36173 6.21071 4.85913 6 5.37778 6ZM10.7556 6.5C10.7556 6.225 10.9756 6 11.2444 6H15.1556C15.4244 6 15.6444 6.225 15.6444 6.5C15.6444 6.775 15.4244 7 15.1556 7H11.2444C10.9756 7 10.7556 6.775 10.7556 6.5ZM10.7556 8.5C10.7556 8.225 10.9756 8 11.2444 8H15.1556C15.4244 8 15.6444 8.225 15.6444 8.5C15.6444 8.775 15.4244 9 15.1556 9H11.2444C10.9756 9 10.7556 8.775 10.7556 8.5ZM10.7556 10.5C10.7556 10.225 10.9756 10 11.2444 10H15.1556C15.4244 10 15.6444 10.225 15.6444 10.5C15.6444 10.775 15.4244 11 15.1556 11H11.2444C10.9756 11 10.7556 10.775 10.7556 10.5Z" fill="#D4D4D8"/>
</g>
<defs>
<clipPath id="clip0_180124_143330">
<rect width="17.6" height="16" fill="white"/>
</clipPath>
</defs>
</svg>
